<?xml version="1.0" encoding="UTF-8"?>
<!DOCTYPE svg PUBLIC "-//W3C//DTD SVG 1.1//EN" "http://www.w3.org/Graphics/SVG/1.1/DTD/svg11.dtd">
<svg xmlns="http://www.w3.org/2000/svg" version="1.1" width="512px" height="512px" style="shape-rendering:geometricPrecision; text-rendering:geometricPrecision; image-rendering:optimizeQuality; fill-rule:evenodd; clip-rule:evenodd" xmlns:xlink="http://www.w3.org/1999/xlink">
<g><path style="opacity:0.985" fill="#000000" d="M 17.5,20.5 C 120.834,20.3333 224.167,20.5 327.5,21C 329.333,22.1667 330.833,23.6667 332,25.5C 332.667,75.5 332.667,125.5 332,175.5C 330.833,177.333 329.333,178.833 327.5,180C 274.833,180.333 222.167,180.667 169.5,181C 149.5,193.667 129.5,206.333 109.5,219C 99.2371,223.52 93.5704,220.353 92.5,209.5C 93.3689,200.084 94.7022,190.751 96.5,181.5C 70.173,180.667 43.8397,180.167 17.5,180C 15.6217,178.457 14.1217,176.624 13,174.5C 12.3333,125.167 12.3333,75.8333 13,26.5C 14.332,24.34 15.832,22.34 17.5,20.5 Z M 33.5,40.5 C 126.5,40.5 219.5,40.5 312.5,40.5C 312.5,80.5 312.5,120.5 312.5,160.5C 262.166,160.333 211.832,160.5 161.5,161C 146.966,170.365 132.3,179.531 117.5,188.5C 117.167,187.833 116.833,187.167 116.5,186.5C 118.115,179.907 118.615,173.24 118,166.5C 116.878,164.376 115.378,162.543 113.5,161C 86.8354,160.5 60.1687,160.333 33.5,160.5C 33.5,120.5 33.5,80.5 33.5,40.5 Z"/></g>
<g><path style="opacity:0.951" fill="#000000" d="M 73.5,71.5 C 77.5,71.5 81.5,71.5 85.5,71.5C 85.5,78.8333 85.5,86.1667 85.5,93.5C 92.1667,93.5 98.8333,93.5 105.5,93.5C 105.5,86.1667 105.5,78.8333 105.5,71.5C 109.833,71.5 114.167,71.5 118.5,71.5C 118.5,91.1667 118.5,110.833 118.5,130.5C 114.167,130.5 109.833,130.5 105.5,130.5C 105.5,122.5 105.5,114.5 105.5,106.5C 98.8333,106.5 92.1667,106.5 85.5,106.5C 85.5,114.5 85.5,122.5 85.5,130.5C 81.5,130.5 77.5,130.5 73.5,130.5C 73.5,110.833 73.5,91.1667 73.5,71.5 Z"/></g>
<g><path style="opacity:0.989" fill="#000000" d="M 123.5,71.5 C 138.167,71.5 152.833,71.5 167.5,71.5C 167.5,75.5 167.5,79.5 167.5,83.5C 162.167,83.5 156.833,83.5 151.5,83.5C 151.5,99.1667 151.5,114.833 151.5,130.5C 147.5,130.5 143.5,130.5 139.5,130.5C 139.5,114.833 139.5,99.1667 139.5,83.5C 134.167,83.5 128.833,83.5 123.5,83.5C 123.5,79.5 123.5,75.5 123.5,71.5 Z"/></g>
<g><path style="opacity:0.918" fill="#000000" d="M 172.5,71.5 C 177.43,71.1975 182.263,71.5308 187,72.5C 190.691,81.7466 194.857,90.7466 199.5,99.5C 204.052,90.3969 208.052,81.0636 211.5,71.5C 216.5,71.5 221.5,71.5 226.5,71.5C 226.5,91.1667 226.5,110.833 226.5,130.5C 222.167,130.5 217.833,130.5 213.5,130.5C 213.667,119.828 213.5,109.161 213,98.5C 209.931,105.874 206.764,113.208 203.5,120.5C 200.833,121.833 198.167,121.833 195.5,120.5C 192.333,113.5 189.167,106.5 186,99.5C 185.5,109.828 185.334,120.161 185.5,130.5C 181.167,130.5 176.833,130.5 172.5,130.5C 172.5,110.833 172.5,91.1667 172.5,71.5 Z"/></g>
<g><path style="opacity:0.992" fill="#000000" d="M 235.5,71.5 C 239.5,71.5 243.5,71.5 247.5,71.5C 247.5,87.1667 247.5,102.833 247.5,118.5C 255.833,118.5 264.167,118.5 272.5,118.5C 272.5,122.5 272.5,126.5 272.5,130.5C 260.167,130.5 247.833,130.5 235.5,130.5C 235.5,110.833 235.5,91.1667 235.5,71.5 Z"/></g>
<g><path style="opacity:0.983" fill="#000000" d="M 357.5,100.5 C 384.169,100.333 410.835,100.5 437.5,101C 439,102.5 440.5,104 442,105.5C 442.333,127.5 442.667,149.5 443,171.5C 464.024,183.264 468.357,199.597 456,220.5C 452.218,224.28 447.884,227.28 443,229.5C 442.667,244.833 442.333,260.167 442,275.5C 440.5,277 439,278.5 437.5,280C 360.833,280.667 284.167,280.667 207.5,280C 202.725,276.345 201.225,271.512 203,265.5C 204.167,263.667 205.667,262.167 207.5,261C 279.166,260.5 350.833,260.333 422.5,260.5C 422.666,250.161 422.5,239.828 422,229.5C 406.433,222.036 400.1,209.703 403,192.5C 405.838,182.329 412.172,175.329 422,171.5C 422.5,154.503 422.667,137.503 422.5,120.5C 400.831,120.667 379.164,120.5 357.5,120C 349.649,113.522 349.649,107.022 357.5,100.5 Z M 428.5,191.5 C 438.323,190.488 442.489,194.822 441,204.5C 438.058,209.153 433.891,210.653 428.5,209C 420.649,203.19 420.649,197.356 428.5,191.5 Z"/></g>
<g><path style="opacity:0.955" fill="#000000" d="M 102.5,260.5 C 117.504,260.333 132.504,260.5 147.5,261C 152.275,264.655 153.775,269.488 152,275.5C 150.833,277.333 149.333,278.833 147.5,280C 133.465,280.134 119.465,280.801 105.5,282C 95.13,284.87 88.13,291.37 84.5,301.5C 104.063,314.096 107.897,330.43 96,350.5C 92.31,353.691 88.4767,356.691 84.5,359.5C 89.3253,372.419 98.6587,379.253 112.5,380C 124.167,380.333 135.833,380.667 147.5,381C 152.275,384.655 153.775,389.488 152,395.5C 150.833,397.333 149.333,398.833 147.5,400C 132.5,400.667 117.5,400.667 102.5,400C 81.3333,394.833 68.1667,381.667 63,360.5C 41.2831,348.676 36.6164,332.009 49,310.5C 53.1384,306.43 57.8051,303.097 63,300.5C 68.3483,279.319 81.5149,265.986 102.5,260.5 Z M 68.5,321.5 C 76.1537,319.988 80.8204,322.988 82.5,330.5C 80.8207,338.175 76.154,341.009 68.5,339C 61.8747,333.168 61.8747,327.335 68.5,321.5 Z"/></g>
<g><path style="opacity:0.975" fill="#000000" d="M 177.5,300.5 C 280.834,300.333 384.167,300.5 487.5,301C 489,302.5 490.5,304 492,305.5C 492.667,355.5 492.667,405.5 492,455.5C 490.5,457 489,458.5 487.5,460C 434.833,460.333 382.167,460.667 329.5,461C 309.5,473.667 289.5,486.333 269.5,499C 258.954,503.405 253.287,500.071 252.5,489C 253.279,479.545 254.613,470.211 256.5,461C 230.167,460.667 203.833,460.333 177.5,460C 175.667,458.833 174.167,457.333 173,455.5C 172.333,405.5 172.333,355.5 173,305.5C 174.366,303.638 175.866,301.972 177.5,300.5 Z M 192.5,320.5 C 285.5,320.5 378.5,320.5 471.5,320.5C 471.5,360.167 471.5,399.833 471.5,439.5C 422.832,439.333 374.166,439.5 325.5,440C 309.08,448.713 293.08,458.213 277.5,468.5C 277.167,467.667 276.833,466.833 276.5,466C 278.027,459.564 278.527,453.064 278,446.5C 276.878,444.376 275.378,442.543 273.5,441C 246.551,439.535 219.551,439.035 192.5,439.5C 192.5,399.833 192.5,360.167 192.5,320.5 Z"/></g>
<g><path style="opacity:0.897" fill="#000000" d="M 279.5,351.5 C 289.66,350.052 298.16,353.052 305,360.5C 305.638,361.609 306.138,362.775 306.5,364C 303.694,367.134 300.528,369.967 297,372.5C 293.175,364.835 287.341,362.668 279.5,366C 270.177,375.946 270.177,385.946 279.5,396C 286.933,399.178 292.766,397.345 297,390.5C 301.038,391.887 304.538,394.053 307.5,397C 304.314,403.842 298.98,408.176 291.5,410C 274.189,412.042 263.356,404.542 259,387.5C 256.352,369.769 263.185,357.769 279.5,351.5 Z"/></g>
<g><path style="opacity:0.909" fill="#000000" d="M 326.5,351.5 C 335.434,350.65 343.767,352.484 351.5,357C 352.022,357.561 352.355,358.228 352.5,359C 351.124,362.927 349.124,366.427 346.5,369.5C 341.165,365.332 335.165,363.832 328.5,365C 324.832,367.103 324.832,369.436 328.5,372C 336.529,374.007 344.029,377.173 351,381.5C 358.905,399.677 352.905,409.677 333,411.5C 326.705,410.718 320.538,409.218 314.5,407C 312.525,406.022 310.858,404.689 309.5,403C 311.11,398.946 313.11,395.113 315.5,391.5C 319.381,393.607 323.381,395.441 327.5,397C 331.423,397.793 335.256,397.626 339,396.5C 339.825,394.299 339.325,392.466 337.5,391C 330.717,388.637 324.05,385.97 317.5,383C 310.987,376.411 309.82,368.911 314,360.5C 317.261,356.131 321.427,353.131 326.5,351.5 Z"/></g>
<g><path style="opacity:0.908" fill="#000000" d="M 374.5,351.5 C 384.295,350.49 393.295,352.656 401.5,358C 399.529,362.119 397.196,365.953 394.5,369.5C 388.397,364.715 381.897,363.715 375,366.5C 374.175,368.701 374.675,370.534 376.5,372C 383.723,374.074 390.723,376.741 397.5,380C 399.617,381.731 401.117,383.898 402,386.5C 404.588,402.422 397.754,410.755 381.5,411.5C 376.074,410.821 370.74,409.654 365.5,408C 362.209,407.247 359.542,405.58 357.5,403C 359.11,398.946 361.11,395.113 363.5,391.5C 367.381,393.607 371.381,395.441 375.5,397C 379.423,397.793 383.256,397.626 387,396.5C 387.825,394.299 387.325,392.466 385.5,391C 378.685,388.728 372.019,386.061 365.5,383C 358.988,376.423 357.821,368.923 362,360.5C 365.261,356.131 369.427,353.131 374.5,351.5 Z"/></g>
</svg>
