<?xml version="1.0" encoding="UTF-8"?>
<!DOCTYPE svg PUBLIC "-//W3C//DTD SVG 1.1//EN" "http://www.w3.org/Graphics/SVG/1.1/DTD/svg11.dtd">
<svg xmlns="http://www.w3.org/2000/svg" version="1.1" width="512px" height="512px" style="shape-rendering:geometricPrecision; text-rendering:geometricPrecision; image-rendering:optimizeQuality; fill-rule:evenodd; clip-rule:evenodd" xmlns:xlink="http://www.w3.org/1999/xlink">
<g><path style="opacity:0.967" fill="#000000" d="M 112.5,-0.5 C 209.167,-0.5 305.833,-0.5 402.5,-0.5C 437.105,33.6048 471.605,67.9381 506,102.5C 506.862,104.087 507.529,105.754 508,107.5C 508.667,239.167 508.667,370.833 508,502.5C 507.175,506.156 505.342,509.156 502.5,511.5C 372.5,511.5 242.5,511.5 112.5,511.5C 111.207,509.704 109.707,508.037 108,506.5C 107.5,418.167 107.333,329.834 107.5,241.5C 81.8312,241.667 56.1645,241.5 30.5,241C 16.397,238.894 7.23034,231.061 3,217.5C 2.33333,172.833 2.33333,128.167 3,83.5C 6.47376,72.0262 13.9738,64.5262 25.5,61C 52.8313,60.5 80.1646,60.3334 107.5,60.5C 107.333,41.8304 107.5,23.1637 108,4.5C 109.707,2.96252 111.207,1.29585 112.5,-0.5 Z M 128.5,19.5 C 214.833,19.5 301.167,19.5 387.5,19.5C 387.015,51.5873 387.515,83.5873 389,115.5C 391.194,118.181 394.027,119.681 397.5,120C 427.498,120.5 457.498,120.667 487.5,120.5C 487.5,244.167 487.5,367.833 487.5,491.5C 367.833,491.5 248.167,491.5 128.5,491.5C 128.5,408.167 128.5,324.833 128.5,241.5C 140.475,240.395 143.975,234.395 139,223.5C 137.745,222.789 136.579,221.956 135.5,221C 101.167,220.667 66.8333,220.333 32.5,220C 26.9194,218.75 23.7528,215.25 23,209.5C 22.3333,170.167 22.3333,130.833 23,91.5C 23.3194,88.0273 24.8194,85.194 27.5,83C 58.9161,81.8402 90.4161,81.3402 122,81.5C 153.584,81.3402 185.084,81.8402 216.5,83C 219.181,85.194 220.681,88.0273 221,91.5C 221.667,131.167 221.667,170.833 221,210.5C 219.061,217.748 214.228,221.248 206.5,221C 198.987,226.93 198.654,233.264 205.5,240C 221.559,242.387 233.059,236.22 240,221.5C 240.882,218.211 241.548,214.877 242,211.5C 242.167,191.333 242.333,171.167 242.5,151C 242.628,128.469 242.128,105.969 241,83.5C 237.5,72 230,64.5 218.5,61C 188.502,60.5 158.502,60.3334 128.5,60.5C 128.5,46.8333 128.5,33.1667 128.5,19.5 Z M 408.5,35.5 C 429.965,56.465 451.299,77.6317 472.5,99C 451.169,99.5 429.836,99.6666 408.5,99.5C 408.5,78.1667 408.5,56.8333 408.5,35.5 Z"/></g>
<g><path style="opacity:0.944" fill="#000000" d="M 87.5,100.5 C 95.8079,98.9931 100.641,102.326 102,110.5C 102.923,133.199 102.59,155.866 101,178.5C 94.3335,195.915 81.8335,203.082 63.5,200C 47.4215,194.582 40.2548,183.416 42,166.5C 44.9188,160.975 49.4188,159.142 55.5,161C 57.286,161.785 58.786,162.951 60,164.5C 61.1582,169.328 62.9915,173.828 65.5,178C 73.8438,181.744 79.0105,179.244 81,170.5C 81.3333,148.833 81.6667,127.167 82,105.5C 83.7297,103.598 85.563,101.931 87.5,100.5 Z"/></g>
<g><path style="opacity:0.945" fill="#000000" d="M 143.5,100.5 C 155.171,100.333 166.838,100.5 178.5,101C 180.624,102.122 182.457,103.622 184,105.5C 186,111.833 186,118.167 184,124.5C 180.562,129.081 176.062,130.581 170.5,129C 167.637,127.636 165.637,125.47 164.5,122.5C 158.863,121.337 153.196,121.17 147.5,122C 142.845,124.897 141.345,129.063 143,134.5C 143.465,135.931 144.299,137.097 145.5,138C 153.229,139.296 160.895,140.963 168.5,143C 186.268,153.974 190.435,168.807 181,187.5C 170.545,198.875 157.545,203.542 142,201.5C 138.167,201.333 134.333,201.167 130.5,201C 126.885,200.386 124.051,198.553 122,195.5C 121.076,188.392 121.409,181.392 123,174.5C 128.707,169.178 134.374,169.178 140,174.5C 141.128,176.345 141.628,178.345 141.5,180.5C 147.245,180.789 152.912,180.289 158.5,179C 164.089,176.549 165.922,172.383 164,166.5C 158.623,161.264 152.123,159.098 144.5,160C 132.768,157.268 125.268,150.101 122,138.5C 118.612,119.589 125.778,106.922 143.5,100.5 Z"/></g>
<g><path style="opacity:0.891" fill="#000000" d="M 168.5,219.5 C 178.974,220.126 182.808,225.459 180,235.5C 176.562,240.081 172.062,241.581 166.5,240C 160.975,237.081 159.142,232.581 161,226.5C 162.632,223.123 165.132,220.79 168.5,219.5 Z"/></g>
<g><path style="opacity:0.935" fill="#000000" d="M 197.5,280.5 C 206.005,279.08 211.005,282.58 212.5,291C 212.091,293.321 211.257,295.487 210,297.5C 202.167,305.333 194.333,313.167 186.5,321C 195.031,329.197 203.198,337.697 211,346.5C 212.843,354.985 209.509,359.985 201,361.5C 198.755,360.863 196.588,360.03 194.5,359C 184,348.5 173.5,338 163,327.5C 160.768,322.603 161.101,317.937 164,313.5C 175.062,302.271 186.228,291.271 197.5,280.5 Z"/></g>
<g><path style="opacity:0.948" fill="#000000" d="M 233.5,300.5 C 303.167,300.333 372.834,300.5 442.5,301C 448.34,305.524 449.507,311.024 446,317.5C 443.932,319.562 441.432,320.728 438.5,321C 371.167,321.667 303.833,321.667 236.5,321C 228.7,319.18 225.867,314.347 228,306.5C 229.36,303.977 231.193,301.977 233.5,300.5 Z"/></g>
<g><path style="opacity:0.946" fill="#000000" d="M 233.5,340.5 C 283.168,340.333 332.834,340.5 382.5,341C 388.546,345.668 389.546,351.168 385.5,357.5C 383.705,359.703 381.371,360.869 378.5,361C 331.167,361.667 283.833,361.667 236.5,361C 228.7,359.18 225.867,354.347 228,346.5C 229.36,343.977 231.193,341.977 233.5,340.5 Z"/></g>
<g><path style="opacity:0.946" fill="#000000" d="M 233.5,380.5 C 283.168,380.333 332.834,380.5 382.5,381C 388.559,385.712 389.559,391.212 385.5,397.5C 383.705,399.703 381.371,400.869 378.5,401C 331.167,401.667 283.833,401.667 236.5,401C 228.7,399.18 225.867,394.347 228,386.5C 229.36,383.977 231.193,381.977 233.5,380.5 Z"/></g>
<g><path style="opacity:0.935" fill="#000000" d="M 408.5,380.5 C 412.544,379.958 416.211,380.791 419.5,383C 429.667,393.167 439.833,403.333 450,413.5C 453.333,418.167 453.333,422.833 450,427.5C 439.5,438 429,448.5 418.5,459C 411.932,462.81 406.432,461.643 402,455.5C 401.333,452.5 401.333,449.5 402,446.5C 409.984,437.682 418.15,429.016 426.5,420.5C 418.484,412.318 410.65,403.984 403,395.5C 400.715,388.968 402.548,383.968 408.5,380.5 Z"/></g>
<g><path style="opacity:0.949" fill="#000000" d="M 173.5,420.5 C 243.167,420.333 312.834,420.5 382.5,421C 388.546,425.668 389.546,431.168 385.5,437.5C 383.705,439.703 381.371,440.869 378.5,441C 311.167,441.667 243.833,441.667 176.5,441C 168.7,439.18 165.867,434.347 168,426.5C 169.36,423.977 171.193,421.977 173.5,420.5 Z"/></g>
</svg>
