<?xml version="1.0" encoding="UTF-8"?>
<!DOCTYPE svg PUBLIC "-//W3C//DTD SVG 1.1//EN" "http://www.w3.org/Graphics/SVG/1.1/DTD/svg11.dtd">
<svg xmlns="http://www.w3.org/2000/svg" version="1.1" width="512px" height="512px" style="shape-rendering:geometricPrecision; text-rendering:geometricPrecision; image-rendering:optimizeQuality; fill-rule:evenodd; clip-rule:evenodd" xmlns:xlink="http://www.w3.org/1999/xlink">
<g><path style="opacity:0.974" fill="#000000" d="M 156.5,-0.5 C 234.167,-0.5 311.833,-0.5 389.5,-0.5C 397.739,6.23365 405.572,13.567 413,21.5C 437.967,48.8016 463.3,75.8016 489,102.5C 490.275,104.717 491.275,107.051 492,109.5C 492.667,223.833 492.667,338.167 492,452.5C 486.76,484.235 468.594,503.902 437.5,511.5C 343.833,511.5 250.167,511.5 156.5,511.5C 123.23,503.687 104.73,482.687 101,448.5C 100.5,382.834 100.333,317.168 100.5,251.5C 79.8306,251.667 59.164,251.5 38.5,251C 27.7892,247.624 21.2892,240.457 19,229.5C 18.3333,183.5 18.3333,137.5 19,91.5C 21.2892,80.5428 27.7892,73.3762 38.5,70C 59.164,69.5 79.8306,69.3334 100.5,69.5C 101.935,32.0927 120.601,8.75936 156.5,-0.5 Z M 167.5,29.5 C 234.5,29.5 301.5,29.5 368.5,29.5C 368.333,51.1692 368.5,72.8359 369,94.5C 372.132,110.962 381.632,121.796 397.5,127C 418.798,128.418 440.131,128.918 461.5,128.5C 461.667,235.167 461.5,341.834 461,448.5C 457.533,468.338 445.7,479.172 425.5,481C 339.5,481.667 253.5,481.667 167.5,481C 149.796,479.63 138.296,470.463 133,453.5C 132.667,451.167 132.333,448.833 132,446.5C 131.5,381.501 131.333,316.501 131.5,251.5C 183.834,251.667 236.168,251.5 288.5,251C 298.434,248.067 304.6,241.567 307,231.5C 307.667,184.167 307.667,136.833 307,89.5C 304.167,79.3333 297.667,72.8333 287.5,70C 235.501,69.5 183.501,69.3333 131.5,69.5C 132.742,46.2672 144.742,32.9339 167.5,29.5 Z M 399.5,53.5 C 413.666,67.5003 427.333,82.0003 440.5,97C 429.167,97.6667 417.833,97.6667 406.5,97C 404.152,96.6541 402.319,95.4875 401,93.5C 399.537,80.2655 399.037,66.9321 399.5,53.5 Z M 49.5,100.5 C 125.167,100.5 200.833,100.5 276.5,100.5C 276.5,140.5 276.5,180.5 276.5,220.5C 200.833,220.5 125.167,220.5 49.5,220.5C 49.5,180.5 49.5,140.5 49.5,100.5 Z M 84.5,135.5 C 102.668,132.153 108.668,138.986 102.5,156C 96.7624,158.295 90.7624,159.128 84.5,158.5C 84.5,150.833 84.5,143.167 84.5,135.5 Z M 222.5,135.5 C 227.511,135.334 232.511,135.501 237.5,136C 241.626,138.302 243.293,141.802 242.5,146.5C 243.191,150.807 241.857,154.307 238.5,157C 233.292,158.397 227.959,158.897 222.5,158.5C 222.5,150.833 222.5,143.167 222.5,135.5 Z"/></g>
<g><path style="opacity:0.942" fill="#000000" d="M 68.5,118.5 C 81.885,118.097 95.2183,118.597 108.5,120C 119.646,124.936 124.979,133.603 124.5,146C 124.857,161.306 117.524,170.306 102.5,173C 96.5092,173.499 90.5092,173.666 84.5,173.5C 84.9455,182.94 84.4455,192.274 83,201.5C 77.0696,205.703 71.403,205.369 66,200.5C 65.3333,174.167 65.3333,147.833 66,121.5C 67.045,120.627 67.8783,119.627 68.5,118.5 Z M 84.5,135.5 C 84.5,143.167 84.5,150.833 84.5,158.5C 90.7624,159.128 96.7624,158.295 102.5,156C 108.668,138.986 102.668,132.153 84.5,135.5 Z"/></g>
<g><path style="opacity:0.943" fill="#000000" d="M 136.5,118.5 C 139.518,118.335 142.518,118.502 145.5,119C 147.492,119.574 148.992,120.741 150,122.5C 150.5,132.494 150.666,142.494 150.5,152.5C 157.833,152.5 165.167,152.5 172.5,152.5C 172.334,142.161 172.5,131.828 173,121.5C 178.163,118.15 183.663,117.65 189.5,120C 190.126,120.75 190.626,121.584 191,122.5C 191.667,148.5 191.667,174.5 191,200.5C 185,205.833 179,205.833 173,200.5C 172.5,189.505 172.333,178.505 172.5,167.5C 165.167,167.5 157.833,167.5 150.5,167.5C 150.956,178.936 150.456,190.269 149,201.5C 143.07,205.703 137.403,205.369 132,200.5C 131.333,174.167 131.333,147.833 132,121.5C 133.409,120.219 134.909,119.219 136.5,118.5 Z"/></g>
<g><path style="opacity:0.944" fill="#000000" d="M 206.5,118.5 C 219.561,118.078 232.561,118.578 245.5,120C 257.399,124.437 263.065,133.104 262.5,146C 262.632,159.112 256.632,167.779 244.5,172C 237.229,173.3 229.896,173.8 222.5,173.5C 222.917,182.915 222.417,192.248 221,201.5C 215.451,205.378 209.951,205.378 204.5,201.5C 203.333,174.84 203.167,148.173 204,121.5C 204.698,120.309 205.531,119.309 206.5,118.5 Z M 222.5,135.5 C 222.5,143.167 222.5,150.833 222.5,158.5C 227.959,158.897 233.292,158.397 238.5,157C 241.857,154.307 243.191,150.807 242.5,146.5C 243.293,141.802 241.626,138.302 237.5,136C 232.511,135.501 227.511,135.334 222.5,135.5 Z"/></g>
<g><path style="opacity:0.925" fill="#000000" d="M 318.5,299.5 C 327.936,298.268 332.103,302.268 331,311.5C 312.612,349.108 294.112,386.608 275.5,424C 268.095,426.649 263.095,424.315 260.5,417C 278.914,377.339 298.247,338.173 318.5,299.5 Z"/></g>
<g><path style="opacity:0.934" fill="#000000" d="M 240.5,340.5 C 250.655,341.14 254.821,346.473 253,356.5C 243.92,362.957 234.754,369.29 225.5,375.5C 234.804,381.638 243.971,387.972 253,394.5C 254.737,403.029 251.404,408.362 243,410.5C 228.141,402.154 213.641,393.154 199.5,383.5C 196.576,379.685 195.742,375.351 197,370.5C 197.833,369.5 198.667,368.5 199.5,367.5C 213.061,358.228 226.727,349.228 240.5,340.5 Z"/></g>
<g><path style="opacity:0.935" fill="#000000" d="M 346.5,340.5 C 349.32,340.248 351.986,340.748 354.5,342C 368.274,350.775 381.774,359.942 395,369.5C 397.763,375.585 396.596,380.752 391.5,385C 378.022,394.152 364.189,402.652 350,410.5C 341.018,408.515 337.684,403.182 340,394.5C 349.029,387.972 358.196,381.638 367.5,375.5C 358.196,369.362 349.029,363.028 340,356.5C 337.947,349.588 340.114,344.255 346.5,340.5 Z"/></g>
</svg>
