<?xml version="1.0" standalone="no"?>
<!DOCTYPE svg PUBLIC "-//W3C//DTD SVG 20010904//EN"
 "http://www.w3.org/TR/2001/REC-SVG-20010904/DTD/svg10.dtd">
<svg version="1.0" xmlns="http://www.w3.org/2000/svg"
 width="626.000000pt" height="626.000000pt" viewBox="0 0 626.000000 626.000000"
 preserveAspectRatio="xMidYMid meet">

<g transform="translate(0.000000,626.000000) scale(0.100000,-0.100000)"
fill="#FF3F3A" stroke="none">
<path d="M1980 5055 c-114 -32 -202 -118 -235 -229 -19 -63 -19 -189 -1 -249
l14 -47 -478 0 c-276 0 -481 -4 -484 -9 -3 -5 -16 -7 -28 -4 -47 13 -48 4 -48
-513 0 -526 -4 -494 56 -494 15 0 24 6 24 15 0 8 7 15 15 15 8 0 15 -7 15 -15
0 -8 7 -15 15 -15 8 0 15 7 15 15 0 12 16 15 88 15 l88 0 12 -92 c7 -51 18
-132 26 -180 l13 -88 -284 0 c-270 0 -284 -1 -303 -20 -15 -15 -20 -33 -20
-75 l0 -55 75 0 75 0 -2 -827 -3 -828 -87 -3 c-80 -3 -88 -5 -88 -22 0 -20 10
-20 481 -20 512 0 498 1 514 -49 15 -49 98 -46 111 4 3 14 12 25 20 25 8 0 14
5 14 10 0 6 56 10 149 10 l149 0 17 -36 c22 -47 56 -62 90 -40 14 9 25 20 25
25 0 4 8 18 19 29 17 21 28 22 155 22 145 0 156 -3 171 -49 9 -30 50 -45 78
-29 17 10 116 13 402 13 l379 0 10 30 c6 17 11 31 12 33 0 1 589 2 1307 2
1291 0 1307 0 1307 19 0 17 -8 20 -57 23 l-58 3 -3 568 c-2 484 -4 567 -16
567 -8 0 -17 4 -20 8 -3 5 13 86 34 182 22 95 40 179 40 186 0 11 -18 14 -75
14 -43 0 -75 4 -75 10 0 6 6 10 14 10 31 0 113 78 134 128 24 55 38 147 28
185 -6 25 -6 25 -57 12 -29 -8 -73 -27 -98 -42 l-46 -29 3 -64 c3 -61 -17
-142 -47 -189 -14 -22 -70 -15 -98 11 -30 28 -72 108 -75 143 -2 18 -11 27
-33 35 -59 18 -167 40 -201 40 -19 0 -34 1 -34 3 0 1 40 130 89 286 84 272 89
284 118 296 78 33 41 145 -42 129 -29 -5 -50 6 -188 98 -107 70 -158 110 -162
126 -12 46 -81 49 -91 3 -11 -51 -12 -52 -48 -46 -19 4 -44 4 -55 0 -20 -6
-18 -10 24 -50 27 -27 45 -53 45 -67 0 -21 1 -21 18 -5 11 11 17 33 17 60 0
41 1 42 40 49 38 6 46 2 196 -97 148 -98 156 -104 152 -132 -3 -19 2 -34 15
-46 22 -20 29 8 -103 -419 l-58 -188 -54 0 c-29 0 -53 5 -53 10 0 6 -20 10
-45 10 -25 0 -45 -4 -45 -9 0 -5 -16 -15 -36 -21 -34 -12 -74 -59 -74 -87 0
-10 54 -13 238 -13 l239 0 18 -41 c10 -22 31 -51 47 -64 15 -13 28 -25 28 -27
0 -2 -22 -1 -50 0 -48 4 -50 3 -50 -21 0 -14 7 -53 16 -87 8 -34 13 -68 10
-76 -3 -8 -1 -14 4 -14 6 0 10 -7 10 -15 0 -8 -7 -15 -15 -15 -8 0 -15 5 -15
11 0 6 -8 8 -20 4 -10 -3 -77 -6 -147 -5 -70 0 -149 0 -175 0 -39 -1 -47 2
-42 15 3 8 9 15 13 15 15 0 16 83 1 109 -15 29 -40 33 -218 35 l-157 1 -3 81
-3 82 -57 -2 -57 -1 -5 -200 -5 -200 -207 -3 -208 -2 0 204 0 205 58 3 57 3 3
50 c5 84 2 86 -183 86 -88 0 -166 4 -173 8 -9 5 -12 34 -10 102 3 81 5 94 20
91 11 -2 21 10 31 40 34 101 77 237 92 293 34 128 58 195 69 194 36 -4 36 -4
36 260 l0 260 -26 20 c-27 21 -31 21 -708 19 -538 -2 -680 -6 -679 -15 2 -7 0
-12 -5 -12 -32 5 -33 2 -32 -328 0 -181 0 -346 0 -368 -1 -39 -2 -38 -46 54
-24 51 -44 99 -44 105 0 6 -13 38 -29 71 -27 57 -91 129 -140 154 -17 10 -21
21 -21 66 0 52 1 55 25 55 44 0 105 31 120 61 8 15 15 50 15 77 l0 50 -46 11
c-108 27 -143 89 -136 237 1 31 9 48 28 65 82 73 84 76 84 120 l0 42 21 -19
c25 -22 69 -110 69 -139 1 -16 4 -14 17 10 20 38 22 101 3 140 -19 36 -95 95
-179 136 -78 39 -193 48 -281 24z m174 -491 c0 -60 -8 -154 -16 -208 -9 -58
-12 -110 -8 -125 8 -25 8 -25 9 -3 1 32 45 27 49 -5 2 -13 10 -23 18 -23 9 0
14 -11 14 -30 l0 -30 -180 0 c-148 0 -187 -3 -213 -16 -91 -47 -158 -129 -178
-220 l-12 -54 -126 -2 -126 -2 128 -3 c104 -3 127 -6 127 -18 0 -12 -23 -15
-127 -17 l-128 -2 126 -3 125 -4 3 -77 2 -77 -242 3 c-251 4 -279 0 -315 -39
-15 -16 -31 -19 -117 -19 -98 0 -99 0 -92 23 15 49 27 118 22 124 -3 3 -13 3
-21 0 -10 -4 -17 -28 -22 -77 -4 -45 -11 -69 -18 -67 -8 3 -11 124 -11 428 l0
424 485 3 485 2 51 -59 c50 -58 52 -59 78 -46 45 23 95 69 136 124 l39 52 -19
32 c-23 37 -25 65 -6 89 14 19 55 38 71 34 6 -2 10 -47 9 -112z m809 -261
c-46 -2 -120 -2 -165 0 -46 1 -9 3 82 3 91 0 128 -2 83 -3z m307 -1 c0 -4 -16
-7 -35 -8 -19 0 -35 3 -35 8 0 4 16 8 35 8 19 0 35 -3 35 -8z m240 -2 c0 -6
-43 -10 -110 -10 -67 0 -110 4 -110 10 0 6 43 10 110 10 67 0 110 -4 110 -10z
m70 0 c0 -5 -11 -10 -25 -10 -14 0 -25 5 -25 10 0 6 11 10 25 10 14 0 25 -4
25 -10z m240 0 c0 -6 -41 -10 -104 -10 -59 0 -108 4 -111 10 -4 6 33 10 104
10 67 0 111 -4 111 -10z m-758 -67 c-40 -2 -103 -2 -140 0 -37 2 -4 3 73 3 77
0 107 -2 67 -3z m156 0 c-10 -2 -28 -2 -40 0 -13 2 -5 4 17 4 22 1 32 -1 23
-4z m180 0 c-26 -2 -71 -2 -100 0 -29 2 -8 3 47 3 55 0 79 -1 53 -3z m421 3
c-9 -8 -350 -12 -355 -4 -3 4 77 8 177 8 100 0 180 -2 178 -4z m-1004 -66 c4
-6 -25 -10 -79 -10 -51 0 -86 4 -86 10 0 6 33 10 79 10 44 0 83 -4 86 -10z
m238 -7 c-40 -2 -106 -2 -145 0 -40 1 -8 3 72 3 80 0 112 -2 73 -3z m77 -63
c0 -6 -35 -10 -85 -10 -50 0 -85 4 -85 10 0 6 35 10 85 10 50 0 85 -4 85 -10z
m-273 -66 c-7 -7 -199 -6 -206 1 -2 3 44 5 104 5 60 0 106 -3 102 -6z m66 -1
c-7 -2 -19 -2 -25 0 -7 3 -2 5 12 5 14 0 19 -2 13 -5z m247 -4 c0 -9 -29 -10
-102 -5 -56 4 -104 9 -107 12 -2 2 44 4 102 4 73 0 107 -4 107 -11z m143 4
c-24 -2 -62 -2 -85 0 -24 2 -5 4 42 4 47 0 66 -2 43 -4z m437 0 c-184 -7 -380
-7 -380 0 0 4 102 6 228 5 125 -1 193 -3 152 -5z m-623 -67 c3 -3 -56 -5 -133
-4 l-139 2 100 6 c112 7 163 6 172 -4z m101 0 c3 -3 -14 -6 -37 -6 -24 0 -40
4 -36 9 6 10 62 7 73 -3z m187 0 c17 -1 -14 -4 -67 -4 -54 -1 -98 1 -98 6 0 6
94 6 165 -2z m400 4 c4 -7 -57 -10 -175 -10 -118 0 -179 3 -175 10 4 6 73 10
175 10 102 0 171 -4 175 -10z m-715 -70 c0 -5 -23 -10 -51 -10 -31 0 -48 4
-44 10 3 6 26 10 51 10 24 0 44 -4 44 -10z m170 0 c0 -6 -32 -10 -75 -10 -43
0 -75 4 -75 10 0 6 32 10 75 10 43 0 75 -4 75 -10z m240 0 c0 -6 -43 -10 -110
-10 -67 0 -110 4 -110 10 0 6 43 10 110 10 67 0 110 -4 110 -10z m310 0 c0 -6
-42 -10 -105 -10 -63 0 -105 4 -105 10 0 6 42 10 105 10 63 0 105 -4 105 -10z
m-1117 -67 c-7 -2 -21 -2 -30 0 -10 3 -4 5 12 5 17 0 24 -2 18 -5z m90 0 c-13
-2 -35 -2 -50 0 -16 2 -5 4 22 4 28 0 40 -2 28 -4z m337 0 c0 -8 -271 -6 -279
2 -2 3 59 5 137 5 78 0 142 -3 142 -7z m70 -3 c-20 -5 -39 -5 -44 1 -6 5 7 9
35 8 l44 -1 -35 -8z m205 4 c-72 -8 -155 -8 -155 -1 0 4 42 6 93 5 50 0 79 -3
62 -4z m327 -1 c-51 -2 -132 -2 -180 0 -48 1 -6 3 93 3 99 0 138 -2 87 -3z
m-1191 -96 c-10 -9 -11 -8 -5 6 3 10 9 15 12 12 3 -3 0 -11 -7 -18z m1107
-217 c4 -12 2 -13 -9 -3 -10 10 -16 9 -31 -3 -11 -10 -37 -17 -70 -18 -50 -1
-53 -3 -56 -28 -2 -20 -10 -30 -28 -34 -13 -3 -35 -19 -48 -35 -22 -25 -32
-29 -78 -29 l-53 0 36 -22 c20 -11 47 -38 59 -59 16 -30 27 -39 47 -39 49 0
86 -59 46 -74 -20 -8 -197 -7 -231 1 -12 3 -25 15 -28 28 -7 27 -38 26 -59 -1
-7 -10 -19 -15 -29 -11 -13 5 -16 23 -16 112 l0 105 -208 0 c-172 0 -211 3
-230 16 -21 15 -75 107 -67 115 2 2 238 2 526 -1 453 -4 523 -7 527 -20z m134
-12 c-7 -7 -12 -8 -12 -2 0 6 3 14 7 17 3 4 9 5 12 2 2 -3 -1 -11 -7 -17z
m-304 -120 c-3 -7 -15 -15 -28 -16 -21 -3 -22 -2 -11 12 16 19 44 21 39 4z
m-1028 -79 c0 -6 -4 -7 -10 -4 -5 3 -10 11 -10 16 0 6 5 7 10 4 6 -3 10 -11
10 -16z m219 -129 c30 -5 71 -10 93 -10 55 0 39 -17 -25 -25 -28 -4 -72 -16
-97 -27 -24 -11 -61 -23 -82 -26 l-38 -5 0 77 0 76 48 -25 c26 -13 71 -29 101
-35z m-1559 -162 c0 -7 11 -92 25 -188 14 -96 25 -183 25 -192 0 -17 -16 -18
-200 -18 -184 0 -200 1 -201 18 0 9 -1 101 -2 205 l-2 187 178 0 c135 0 177
-3 177 -12z m2740 -308 l0 -320 60 0 60 0 0 60 0 60 210 0 210 0 -2 -567 -3
-568 -202 -3 c-124 -1 -203 -6 -203 -12 0 -13 -137 -13 -142 -1 -2 6 -145 11
-344 13 -240 2 -345 6 -355 15 -8 6 -31 14 -51 18 -21 4 -38 11 -38 16 0 5
-10 9 -22 9 -23 0 -23 1 -16 112 26 456 19 760 -19 873 -25 72 -125 169 -229
223 -75 39 -210 83 -296 97 l-38 6 0 144 0 145 710 0 710 0 0 -320z m989 103
c24 -30 20 -58 -11 -85 -18 -16 -43 -18 -204 -18 l-184 0 0 65 0 65 189 0 190
0 20 -27z m105 -169 c9 -8 16 -28 16 -44 0 -57 -11 -60 -241 -60 l-209 0 0 60
0 60 209 0 c177 0 212 -2 225 -16z m-3776 -701 l-3 -568 -202 -3 c-159 -2
-203 0 -204 10 -2 23 -2 59 0 596 l1 532 205 0 205 0 -2 -567z m4172 332 l0
-155 -430 -2 -430 -3 0 158 0 157 430 0 430 0 0 -155z m-2630 65 c41 -22 45
-64 45 -498 0 -226 3 -412 8 -412 4 0 7 -8 7 -19 0 -16 -4 -17 -35 -7 -19 6
-35 14 -35 18 0 4 -6 5 -14 2 -8 -3 -17 -1 -21 5 -3 6 -15 11 -26 11 -19 0
-20 5 -15 78 13 183 17 311 17 526 0 217 2 232 22 268 25 43 22 41 47 28z
m-1250 -89 c95 -1 95 -1 112 -31 l17 -29 158 -3 158 -3 3 -58 c2 -44 6 -57 16
-54 8 3 32 11 55 18 40 12 41 13 41 56 l0 43 163 0 c105 0 167 4 174 11 18 18
26 -160 20 -419 -3 -129 -7 -236 -10 -238 -2 -2 -24 5 -48 16 -35 16 -66 20
-156 20 -83 0 -113 3 -114 13 -1 6 -1 29 -1 50 1 20 -2 37 -6 38 -4 0 -26 2
-50 6 -24 3 -59 2 -78 -1 -33 -7 -34 -8 -34 -56 l0 -50 -117 0 c-104 0 -124
-3 -170 -24 -56 -26 -107 -85 -118 -137 -9 -39 -28 -47 -110 -45 l-70 1 -3
430 c-1 237 0 436 3 442 3 8 17 11 37 9 18 -3 76 -5 128 -5z m3880 -346 l0
-155 -430 0 -430 0 0 155 0 155 430 0 430 0 0 -155z m0 -379 c0 -123 -3 -165
-12 -167 -7 -2 -201 -3 -430 -1 l-418 2 0 165 0 165 430 0 430 0 0 -164z
m-3420 -81 c0 -60 -2 -65 -24 -71 -42 -10 -334 0 -347 13 -16 16 17 71 61 100
30 21 44 23 171 23 l139 0 0 -65z m391 42 c19 -12 43 -39 54 -60 17 -33 18
-39 5 -47 -19 -13 -319 -11 -342 1 -14 8 -18 23 -18 69 l0 60 134 0 c122 0
136 -2 167 -23z"/>
<path d="M944 4367 c-8 -9 -7 -16 3 -26 18 -17 42 -7 39 16 -3 22 -27 27 -42
10z"/>
<path d="M900 4252 c-6 -2 -10 -35 -10 -73 l0 -69 209 0 c236 0 218 -7 217 85
l-1 50 -203 5 c-111 3 -207 4 -212 2z"/>
<path d="M1492 4243 c59 -2 158 -2 220 0 62 1 14 3 -107 3 -121 0 -172 -2
-113 -3z"/>
<path d="M1493 4203 c59 -2 155 -2 215 0 59 1 10 3 -108 3 -118 0 -167 -2
-107 -3z"/>
<path d="M1493 4173 c59 -2 155 -2 215 0 59 1 10 3 -108 3 -118 0 -167 -2
-107 -3z"/>
<path d="M1492 4133 c59 -2 158 -2 220 0 62 1 14 3 -107 3 -121 0 -172 -2
-113 -3z"/>
<path d="M993 4063 c59 -2 155 -2 215 0 59 1 10 3 -108 3 -118 0 -167 -2 -107
-3z"/>
<path d="M993 4033 c59 -2 155 -2 215 0 59 1 10 3 -108 3 -118 0 -167 -2 -107
-3z"/>
<path d="M993 3993 c59 -2 155 -2 215 0 59 1 10 3 -108 3 -118 0 -167 -2 -107
-3z"/>
<path d="M993 3953 c59 -2 155 -2 215 0 59 1 10 3 -108 3 -118 0 -167 -2 -107
-3z"/>
<path d="M896 3874 c-8 -20 -8 -88 0 -108 5 -13 24 -16 105 -16 l98 0 21 47
c11 26 23 57 26 70 l6 23 -125 0 c-105 0 -126 -3 -131 -16z"/>
<path d="M1458 3883 c34 -2 88 -2 120 0 31 2 3 3 -63 3 -66 0 -92 -1 -57 -3z"/>
<path d="M1443 3763 c15 -2 39 -2 55 0 15 2 2 4 -28 4 -30 0 -43 -2 -27 -4z"/>
<path d="M2345 4700 c-13 -21 8 -32 52 -27 50 5 64 14 43 27 -20 13 -87 13
-95 0z"/>
<path d="M2372 4633 c5 -25 28 -28 28 -4 0 12 -6 21 -16 21 -9 0 -14 -7 -12
-17z"/>
<path d="M3932 3848 c-9 -12 -45 -135 -121 -416 -17 -62 -31 -115 -31 -117 0
-3 159 -5 353 -5 l353 0 56 203 57 202 -38 38 c-20 21 -50 40 -66 43 -37 6
-45 14 -17 14 19 0 20 3 10 25 l-11 25 -267 0 c-202 0 -270 -3 -278 -12z m278
-48 c0 -6 -43 -10 -110 -10 -67 0 -110 4 -110 10 0 6 43 10 110 10 67 0 110
-4 110 -10z m80 0 c0 -5 -16 -10 -35 -10 -19 0 -35 5 -35 10 0 6 16 10 35 10
19 0 35 -4 35 -10z m93 3 c-13 -2 -35 -2 -50 0 -16 2 -5 4 22 4 28 0 40 -2 28
-4z m-183 -63 c0 -6 -28 -9 -67 -8 l-68 1 65 7 c36 4 66 7 68 8 1 1 2 -2 2 -8z
m150 -6 c0 -2 -21 -3 -47 -3 -46 2 -47 2 -13 8 33 7 60 4 60 -5z m-107 -1 c-7
-2 -19 -2 -25 0 -7 3 -2 5 12 5 14 0 19 -2 13 -5z m-213 -63 c0 -5 -18 -10
-40 -10 -22 0 -40 5 -40 10 0 6 18 10 40 10 22 0 40 -4 40 -10z m135 0 c-3 -5
-24 -10 -46 -10 -21 0 -39 5 -39 10 0 6 21 10 46 10 27 0 43 -4 39 -10z m298
3 c-13 -2 -33 -2 -45 0 -13 2 -3 4 22 4 25 0 35 -2 23 -4z m-485 -70 c-10 -2
-26 -2 -35 0 -10 3 -2 5 17 5 19 0 27 -2 18 -5z m80 0 c-10 -2 -26 -2 -35 0
-10 3 -2 5 17 5 19 0 27 -2 18 -5z m-48 -63 c0 -5 -22 -10 -50 -10 -27 0 -50
5 -50 10 0 6 23 10 50 10 28 0 50 -4 50 -10z m40 0 c0 -5 -4 -10 -10 -10 -5 0
-10 5 -10 10 0 6 5 10 10 10 6 0 10 -4 10 -10z m110 0 c0 -5 -22 -10 -50 -10
-27 0 -50 5 -50 10 0 6 23 10 50 10 28 0 50 -4 50 -10z"/>
<path d="M640 3665 c0 -35 22 -150 31 -159 18 -20 21 6 9 79 -7 41 -19 80 -26
86 -11 9 -14 8 -14 -6z"/>
<path d="M4110 3215 c0 -9 9 -15 25 -15 16 0 25 6 25 15 0 9 -9 15 -25 15 -16
0 -25 -6 -25 -15z"/>
<path d="M4180 3215 c0 -10 11 -15 35 -15 24 0 35 5 35 15 0 10 -11 15 -35 15
-24 0 -35 -5 -35 -15z"/>
</g>
</svg>
