<?xml version="1.0" encoding="UTF-8"?>
<!DOCTYPE svg PUBLIC "-//W3C//DTD SVG 1.1//EN" "http://www.w3.org/Graphics/SVG/1.1/DTD/svg11.dtd">
<svg xmlns="http://www.w3.org/2000/svg" version="1.1" width="512px" height="512px" style="shape-rendering:geometricPrecision; text-rendering:geometricPrecision; image-rendering:optimizeQuality; fill-rule:evenodd; clip-rule:evenodd" xmlns:xlink="http://www.w3.org/1999/xlink">
<g><path style="opacity:0.989" fill="#000000" d="M 226.5,-0.5 C 245.167,-0.5 263.833,-0.5 282.5,-0.5C 293.701,0.877321 305.035,2.37732 316.5,4C 342.117,8.31654 360.95,21.8165 373,44.5C 374.741,49.0544 376.074,53.7211 377,58.5C 377.667,103.5 377.667,148.5 377,193.5C 372.434,220.064 357.268,237.23 331.5,245C 284.204,246.309 236.871,246.976 189.5,247C 150.906,252.594 127.406,274.427 119,312.5C 118.5,334.497 118.333,356.497 118.5,378.5C 101.497,378.667 84.4967,378.5 67.5,378C 45.0269,374.191 28.8602,362.025 19,341.5C -4.22829,283.777 -4.22829,226.11 19,168.5C 30.7531,148.033 48.2531,135.533 71.5,131C 132.472,129.527 193.472,129.027 254.5,129.5C 254.5,124.833 254.5,120.167 254.5,115.5C 213.833,115.5 173.167,115.5 132.5,115.5C 132.333,95.4972 132.5,75.4972 133,55.5C 135.474,29.3526 149.64,13.5193 175.5,8C 192.434,3.89376 209.434,1.06042 226.5,-0.5 Z M 181.5,37.5 C 194.816,36.2385 203.649,41.9051 208,54.5C 209.5,74.3333 200.333,83.5 180.5,82C 164.67,74.849 160.503,63.349 168,47.5C 171.555,42.7629 176.055,39.4296 181.5,37.5 Z"/></g>
<g><path style="opacity:0.989" fill="#000000" d="M 274.5,511.5 C 261.5,511.5 248.5,511.5 235.5,511.5C 211.089,508.726 187.756,501.893 165.5,491C 147.988,481.471 137.155,466.971 133,447.5C 132.333,403.833 132.333,360.167 133,316.5C 137.462,289.04 152.962,271.207 179.5,263C 226.796,261.691 274.129,261.024 321.5,261C 359.525,254.976 382.692,233.143 391,195.5C 391.5,173.503 391.667,151.503 391.5,129.5C 409.836,129.333 428.17,129.5 446.5,130C 468.535,134.109 483.702,146.609 492,167.5C 508.949,211.409 512.949,256.409 504,302.5C 498.948,323.346 490.615,342.68 479,360.5C 470.771,370.366 460.271,376.199 447.5,378C 383.501,378.5 319.501,378.667 255.5,378.5C 255.5,383.5 255.5,388.5 255.5,393.5C 296.167,393.5 336.833,393.5 377.5,393.5C 377.667,412.17 377.5,430.836 377,449.5C 372.659,468.018 362.159,481.851 345.5,491C 322.877,501.823 299.21,508.657 274.5,511.5 Z M 317.5,425.5 C 334.321,423.824 343.987,431.324 346.5,448C 344.196,464.306 334.863,471.639 318.5,470C 305.929,465.092 300.429,455.925 302,442.5C 304.596,434.408 309.762,428.741 317.5,425.5 Z"/></g>
</svg>
