<?xml version="1.0" encoding="UTF-8"?>
<!DOCTYPE svg PUBLIC "-//W3C//DTD SVG 1.1//EN" "http://www.w3.org/Graphics/SVG/1.1/DTD/svg11.dtd">
<svg xmlns="http://www.w3.org/2000/svg" version="1.1" width="512px" height="512px" style="shape-rendering:geometricPrecision; text-rendering:geometricPrecision; image-rendering:optimizeQuality; fill-rule:evenodd; clip-rule:evenodd" xmlns:xlink="http://www.w3.org/1999/xlink">
<g><path style="opacity:0.939" fill="#000000" d="M 511.5,400.5 C 511.5,405.833 511.5,411.167 511.5,416.5C 503.353,434.569 489.687,440.736 470.5,435C 467.567,433.729 464.901,432.062 462.5,430C 451.167,418.667 439.833,407.333 428.5,396C 382.496,395.167 336.496,395.333 290.5,396.5C 292.708,403.789 294.708,411.122 296.5,418.5C 313.434,415.529 327.268,420.529 338,433.5C 342.846,441.552 344.513,450.219 343,459.5C 342.535,460.931 341.701,462.097 340.5,463C 305.583,464.16 270.583,464.66 235.5,464.5C 200.417,464.66 165.417,464.16 130.5,463C 124.967,447.255 128.967,434.255 142.5,424C 152.562,418.982 163.228,417.148 174.5,418.5C 176.292,411.122 178.292,403.789 180.5,396.5C 168.848,395.667 157.181,395.167 145.5,395C 140.465,391.987 139.298,387.82 142,382.5C 142.903,381.299 144.069,380.465 145.5,380C 234.167,379.667 322.833,379.333 411.5,379C 404.833,372.333 398.167,365.667 391.5,359C 386.658,360.315 381.658,360.648 376.5,360C 369.069,354.573 362.236,348.407 356,341.5C 317.881,362.515 277.714,367.348 235.5,356C 208.394,348.121 185.06,334.121 165.5,314C 126.167,313.667 86.8333,313.333 47.5,313C 42.52,310.149 41.1867,305.982 43.5,300.5C 44.5,299.667 45.5,298.833 46.5,298C 81.5,297.667 116.5,297.333 151.5,297C 146.756,291.516 142.756,285.516 139.5,279C 108.833,278.667 78.1667,278.333 47.5,278C 42.52,275.149 41.1867,270.982 43.5,265.5C 44.5,264.667 45.5,263.833 46.5,263C 74.8314,262.5 103.165,262.333 131.5,262.5C 129.578,255.979 127.578,249.479 125.5,243C 99.1667,242.667 72.8333,242.333 46.5,242C 45.3333,240.833 44.1667,239.667 43,238.5C 42.3333,216.167 42.3333,193.833 43,171.5C 43.8333,170.5 44.6667,169.5 45.5,168.5C 72.1222,167.509 98.7888,167.176 125.5,167.5C 128.038,156.886 131.371,146.553 135.5,136.5C 95.5,136.5 55.5,136.5 15.5,136.5C 15.6179,218.946 15.2846,299.946 14.5,379.5C 48.5016,379.333 82.5016,379.5 116.5,380C 122.259,383.892 122.926,388.559 118.5,394C 81.918,395.654 45.2514,395.987 8.5,395C 4.40474,393.732 1.40474,391.232 -0.5,387.5C -0.5,290.833 -0.5,194.167 -0.5,97.5C 1.40474,93.768 4.40474,91.268 8.5,90C 28.8333,89.3333 49.1667,89.3333 69.5,90C 76.1667,95 76.1667,100 69.5,105C 51.5031,105.5 33.5031,105.667 15.5,105.5C 15.5,110.5 15.5,115.5 15.5,120.5C 58.8385,120.833 102.172,120.5 145.5,119.5C 148.255,114.577 151.588,110.077 155.5,106C 136.5,105.667 117.5,105.333 98.5,105C 93.7762,102.565 92.2762,98.7314 94,93.5C 94.8333,92.6667 95.6667,91.8333 96.5,91C 121.079,89.6855 145.746,89.0188 170.5,89C 217.412,48.2823 270.745,36.949 330.5,55C 351.733,62.2752 370.399,73.6085 386.5,89C 412.895,89.0266 439.229,89.6932 465.5,91C 469.603,93.7021 471.769,97.5354 472,102.5C 472.333,187.167 472.667,271.833 473,356.5C 483.333,366.833 493.667,377.167 504,387.5C 507.046,391.602 509.546,395.935 511.5,400.5 Z M 267.5,62.5 C 327.183,60.5816 372.35,84.9149 403,135.5C 411.13,150.558 416.464,166.558 419,183.5C 422.274,188.738 426.774,189.904 432.5,187C 433.93,185.093 434.596,182.926 434.5,180.5C 432.41,165.302 428.077,150.802 421.5,137C 433.162,136.5 444.829,136.333 456.5,136.5C 456.667,204.167 456.5,271.834 456,339.5C 448.167,331.667 440.333,323.833 432.5,316C 435.723,311.103 436.223,305.937 434,300.5C 428.351,294.017 422.517,287.683 416.5,281.5C 427.813,260.897 434.479,238.897 436.5,215.5C 433.169,206.736 428.003,205.403 421,211.5C 414.821,268.058 386.321,308.891 335.5,334C 281.086,355.322 231.086,347.655 185.5,311C 139.84,267.193 126.673,215.026 146,154.5C 168.849,100.495 209.349,69.8283 267.5,62.5 Z M 402.5,106.5 C 420.326,105.503 438.326,105.17 456.5,105.5C 456.5,110.5 456.5,115.5 456.5,120.5C 441.83,120.667 427.163,120.5 412.5,120C 409.303,115.317 405.97,110.817 402.5,106.5 Z M 58.5,182.5 C 79.8333,182.5 101.167,182.5 122.5,182.5C 121.185,197.496 121.185,212.496 122.5,227.5C 101.167,227.5 79.8333,227.5 58.5,227.5C 58.5,212.5 58.5,197.5 58.5,182.5 Z M 335.5,185.5 C 348.243,183.949 356.41,189.282 360,201.5C 359.927,216.451 352.427,223.618 337.5,223C 322.329,217.153 318.496,206.986 326,192.5C 328.79,189.535 331.957,187.202 335.5,185.5 Z M 406.5,296.5 C 410.905,299.396 414.905,302.896 418.5,307C 406.5,319 394.5,331 382.5,343C 381.833,343.667 381.167,343.667 380.5,343C 377.167,339.667 373.833,336.333 370.5,333C 384.709,322.958 396.709,310.791 406.5,296.5 Z M 420.5,327.5 C 446.191,352.024 471.024,377.357 495,403.5C 496.991,413.868 492.824,419.868 482.5,421.5C 478.801,420.817 475.468,419.317 472.5,417C 449.333,393.833 426.167,370.667 403,347.5C 402.333,346.833 402.333,346.167 403,345.5C 409.036,339.631 414.87,333.631 420.5,327.5 Z M 197.5,395.5 C 222.836,395.333 248.169,395.5 273.5,396C 276.004,403.35 278.004,410.85 279.5,418.5C 250.167,418.5 220.833,418.5 191.5,418.5C 193.099,410.706 195.099,403.04 197.5,395.5 Z M 157.5,434.5 C 209.168,434.333 260.834,434.5 312.5,435C 319.65,436.984 324.316,441.484 326.5,448.5C 265.833,448.5 205.167,448.5 144.5,448.5C 146.767,441.9 151.101,437.233 157.5,434.5 Z"/></g>
<g><path style="opacity:0.925" fill="#000000" d="M 267.5,76.5 C 325.596,74.7837 368.096,99.4504 395,150.5C 417.667,209.177 406.167,260.01 360.5,303C 322.933,331.699 281.599,339.033 236.5,325C 231.776,322.565 230.276,318.731 232,313.5C 233.393,310.634 235.726,309.301 239,309.5C 288.206,324.533 330.206,313.2 365,275.5C 396.274,232.755 398.607,188.422 372,142.5C 343.04,102.838 304.206,87.0047 255.5,95C 212.813,106.019 184.646,132.519 171,174.5C 161.571,213.781 169.904,248.781 196,279.5C 203.022,285.524 209.689,291.857 216,298.5C 216.152,307.348 211.985,310.515 203.5,308C 162.689,275.527 145.856,233.36 153,181.5C 164.279,130.553 194.779,97.0526 244.5,81C 252.244,79.1505 259.911,77.6505 267.5,76.5 Z M 335.5,185.5 C 331.957,187.202 328.79,189.535 326,192.5C 318.496,206.986 322.329,217.153 337.5,223C 352.427,223.618 359.927,216.451 360,201.5C 356.41,189.282 348.243,183.949 335.5,185.5 Z"/></g>
<g><path style="opacity:0.92" fill="#000000" d="M 202.5,169.5 C 213.852,167.793 223.685,170.793 232,178.5C 234.29,187.789 230.79,191.622 221.5,190C 216.478,185.683 210.811,184.516 204.5,186.5C 203.585,187.328 202.919,188.328 202.5,189.5C 210.716,193.749 219.049,197.915 227.5,202C 237.384,213.614 236.717,224.614 225.5,235C 212.618,241.479 200.285,240.479 188.5,232C 181.898,226.49 181.898,221.156 188.5,216C 190.833,215.333 193.167,215.333 195.5,216C 200.917,222.352 207.583,224.352 215.5,222C 219.505,218.64 219.172,215.64 214.5,213C 207.674,210.725 201.007,208.058 194.5,205C 184.632,195.643 183.965,185.643 192.5,175C 195.767,172.87 199.1,171.037 202.5,169.5 Z"/></g>
<g><path style="opacity:0.924" fill="#000000" d="M 256.5,169.5 C 266.172,169.334 275.839,169.5 285.5,170C 291.335,173.855 292.002,178.522 287.5,184C 280.924,185.377 274.257,185.877 267.5,185.5C 267.5,189.167 267.5,192.833 267.5,196.5C 273.176,196.334 278.843,196.501 284.5,197C 289.446,201.3 289.779,205.967 285.5,211C 279.593,212.361 273.593,212.861 267.5,212.5C 267.5,216.167 267.5,219.833 267.5,223.5C 273.842,223.334 280.175,223.5 286.5,224C 292.421,230.395 291.421,235.395 283.5,239C 275.167,239.667 266.833,239.667 258.5,239C 256.152,238.654 254.319,237.487 253,235.5C 251.357,215.256 251.024,194.923 252,174.5C 253.025,172.313 254.525,170.646 256.5,169.5 Z"/></g>
<g><path style="opacity:0.926" fill="#000000" d="M 333.5,169.5 C 356.365,167.338 370.531,177.338 376,199.5C 375.387,228.728 360.554,241.561 331.5,238C 311.871,230.587 303.704,216.421 307,195.5C 311.122,181.877 319.955,173.21 333.5,169.5 Z M 335.5,185.5 C 331.957,187.202 328.79,189.535 326,192.5C 318.496,206.986 322.329,217.153 337.5,223C 352.427,223.618 359.927,216.451 360,201.5C 356.41,189.282 348.243,183.949 335.5,185.5 Z"/></g>
<g><path style="opacity:0.925" fill="#000000" d="M 47.5,332.5 C 71.169,332.333 94.8357,332.5 118.5,333C 123.535,336.013 124.702,340.18 122,345.5C 121.097,346.701 119.931,347.535 118.5,348C 94.8333,348.667 71.1667,348.667 47.5,348C 43.7138,346.931 42.0471,344.431 42.5,340.5C 42.1883,336.499 43.855,333.832 47.5,332.5 Z"/></g>
</svg>
