<svg width="111" height="260" viewBox="0 0 111 260" fill="none" xmlns="http://www.w3.org/2000/svg">
<g opacity="0.1">
<mask id="path-1-outside-1_2040_16" maskUnits="userSpaceOnUse" x="-29" y="-8" width="148" height="300" fill="black">
<rect fill="white" x="-29" y="-8" width="148" height="300"/>
<path d="M66.2 72.8C66.2 60.2667 64.0667 51.8667 59.8 47.6C55.8 43.0667 50.3333 40.8 43.4 40.8C36.4667 40.8 30.8667 42.9333 26.6 47.2C22.6 51.2 20.6 58.2667 20.6 68.4V98.4H-21V71.2C-21 48.5333 -15.5333 31.2 -4.6 19.2C6.6 6.93332 23 0.799998 44.6 0.799998C66.2 0.799998 82.4667 6.93332 93.4 19.2C104.6 31.2 110.2 48.5333 110.2 71.2C110.2 86.4 107.8 100.133 103 112.4C98.4667 124.667 92.7333 135.867 85.8 146C78.8667 156.133 71.4 165.467 63.4 174C55.4 182.267 48.2 190.267 41.8 198C35.4 205.467 30.3333 212.933 26.6 220.4C22.8667 227.867 21.6667 235.733 23 244H106.2V284H-21V249.6C-21 236 -18.8667 224 -14.6 213.6C-10.3333 203.2 -5 193.733 1.4 185.2C8.06667 176.4 15.1333 168.267 22.6 160.8C30.0667 153.067 37 144.933 43.4 136.4C50.0667 127.867 55.5333 118.533 59.8 108.4C64.0667 98.2667 66.2 86.4 66.2 72.8Z"/>
</mask>
<path d="M59.8 47.6L53.8013 52.893L53.9665 53.0802L54.1432 53.2569L59.8 47.6ZM26.6 47.2L32.2569 52.8569L32.2569 52.8568L26.6 47.2ZM20.6 98.4V106.4H28.6V98.4H20.6ZM-21 98.4H-29V106.4H-21V98.4ZM-4.6 19.2L-10.5079 13.8058L-10.5136 13.8121L-4.6 19.2ZM93.4 19.2L87.4279 24.5229L87.489 24.5914L87.5516 24.6585L93.4 19.2ZM103 112.4L95.5501 109.485L95.5224 109.556L95.4961 109.627L103 112.4ZM85.8 146L79.1975 141.483L79.1975 141.483L85.8 146ZM63.4 174L69.1488 179.563L69.1929 179.518L69.2363 179.472L63.4 174ZM41.8 198L47.8741 203.206L47.9191 203.154L47.9632 203.101L41.8 198ZM26.6 220.4L19.4446 216.822L26.6 220.4ZM23 244L15.1021 245.274L16.1869 252H23V244ZM106.2 244H114.2V236H106.2V244ZM106.2 284V292H114.2V284H106.2ZM-21 284H-29V292H-21V284ZM-14.6 213.6L-22.0013 210.564L-22.0013 210.564L-14.6 213.6ZM1.4 185.2L-4.97674 180.369L-4.98841 180.385L-5 180.4L1.4 185.2ZM22.6 160.8L28.2569 166.457L28.3065 166.407L28.3552 166.357L22.6 160.8ZM43.4 136.4L37.0958 131.475L37.0473 131.537L37 131.6L43.4 136.4ZM59.8 108.4L67.1731 111.504L67.1731 111.504L59.8 108.4ZM74.2 72.8C74.2 66.1366 73.6388 60.1902 72.3539 55.1308C71.0787 50.1098 68.9586 45.4449 65.4569 41.9431L54.1432 53.2569C54.9081 54.0218 55.988 55.6902 56.8462 59.0692C57.6945 62.4097 58.2 66.9301 58.2 72.8H74.2ZM65.7987 42.307C60.0494 35.7911 52.2554 32.8 43.4 32.8V48.8C48.4113 48.8 51.5506 50.3422 53.8013 52.893L65.7987 42.307ZM43.4 32.8C34.688 32.8 26.9364 35.5499 20.9431 41.5431L32.2569 52.8568C34.7969 50.3168 38.2454 48.8 43.4 48.8V32.8ZM20.9432 41.5431C14.6252 47.8611 12.6 57.6817 12.6 68.4H28.6C28.6 58.8517 30.5748 54.5389 32.2569 52.8569L20.9432 41.5431ZM12.6 68.4V98.4H28.6V68.4H12.6ZM20.6 90.4H-21V106.4H20.6V90.4ZM-13 98.4V71.2H-29V98.4H-13ZM-13 71.2C-13 49.7351 -7.82573 34.6188 1.31357 24.5879L-10.5136 13.8121C-23.2409 27.7811 -29 47.3315 -29 71.2H-13ZM1.30788 24.5941C10.5697 14.4503 24.5339 8.8 44.6 8.8V-7.2C21.4661 -7.2 2.63035 -0.58365 -10.5079 13.8058L1.30788 24.5941ZM44.6 8.8C64.6776 8.8 78.4533 14.4539 87.4279 24.5229L99.3721 13.877C86.4801 -0.587232 67.7224 -7.2 44.6 -7.2V8.8ZM87.5516 24.6585C96.916 34.6918 102.2 49.7805 102.2 71.2H118.2C118.2 47.2862 112.284 27.7081 99.2484 13.7414L87.5516 24.6585ZM102.2 71.2C102.2 85.5541 99.9351 98.2785 95.5501 109.485L110.45 115.315C115.665 101.988 118.2 87.2459 118.2 71.2H102.2ZM95.4961 109.627C91.1757 121.317 85.7366 131.925 79.1975 141.483L92.4025 150.517C99.7301 139.808 105.758 128.016 110.504 115.173L95.4961 109.627ZM79.1975 141.483C72.4835 151.295 65.2709 160.307 57.5637 168.528L69.2363 179.472C77.5291 170.626 85.2498 160.971 92.4025 150.517L79.1975 141.483ZM57.6512 168.437C49.5274 176.831 42.1863 184.986 35.6368 192.899L47.9632 203.101C54.2137 195.548 61.2726 187.702 69.1488 179.563L57.6512 168.437ZM35.726 192.794C28.9735 200.671 23.5168 208.678 19.4446 216.822L33.7554 223.978C37.1498 217.189 41.8265 210.262 47.8741 203.206L35.726 192.794ZM19.4446 216.822C14.9591 225.793 13.5027 235.358 15.1021 245.274L30.8979 242.726C29.8307 236.109 30.7743 229.94 33.7554 223.978L19.4446 216.822ZM23 252H106.2V236H23V252ZM98.2 244V284H114.2V244H98.2ZM106.2 276H-21V292H106.2V276ZM-13 284V249.6H-29V284H-13ZM-13 249.6C-13 236.828 -10.9964 225.894 -7.19865 216.636L-22.0013 210.564C-26.7369 222.106 -29 235.172 -29 249.6H-13ZM-7.19865 216.636C-3.17575 206.831 1.82858 197.962 7.8 190L-5 180.4C-11.8286 189.505 -17.4909 199.569 -22.0013 210.564L-7.19865 216.636ZM7.77674 190.031C14.2326 181.509 21.0602 173.654 28.2569 166.457L16.9431 155.143C9.2065 162.88 1.90076 171.291 -4.97674 180.369L7.77674 190.031ZM28.3552 166.357C36.0505 158.387 43.1994 150.001 49.8 141.2L37 131.6C30.8006 139.866 24.0828 147.747 16.8448 155.243L28.3552 166.357ZM49.7042 141.325C56.8127 132.226 62.6364 122.279 67.1731 111.504L52.4269 105.296C48.4303 114.788 43.3206 123.507 37.0958 131.475L49.7042 141.325ZM67.1731 111.504C71.939 100.185 74.2 87.2212 74.2 72.8H58.2C58.2 85.5788 56.1943 96.348 52.4269 105.296L67.1731 111.504Z" fill="url(#paint0_linear_2040_16)" mask="url(#path-1-outside-1_2040_16)"/>
</g>
<defs>
<linearGradient id="paint0_linear_2040_16" x1="-33.1191" y1="-470.14" x2="123.038" y2="-469.82" gradientUnits="userSpaceOnUse">
<stop stop-color="#F39200"/>
<stop offset="1" stop-color="#E05F02"/>
</linearGradient>
</defs>
</svg>
