<svg width="118" height="256" viewBox="0 0 118 256" fill="none" xmlns="http://www.w3.org/2000/svg">
<g opacity="0.1">
<mask id="path-1-outside-1_2040_4" maskUnits="userSpaceOnUse" x="-40" y="-8" width="166" height="296" fill="black">
<rect fill="white" x="-40" y="-8" width="166" height="296"/>
<path d="M-31.4 189.2L48.6 -1.90735e-05H96.6V189.2H117.4V229.2H96.6V280H52.6V229.2H-31.4V189.2ZM52.6 189.2V85.6L9 189.2H52.6Z"/>
</mask>
<path d="M-31.4 189.2L-38.7684 186.084L-39.4 187.578V189.2H-31.4ZM48.6 -1.90735e-05V-8.00002H43.2969L41.2316 -3.11561L48.6 -1.90735e-05ZM96.6 -1.90735e-05H104.6V-8.00002H96.6V-1.90735e-05ZM96.6 189.2H88.6V197.2H96.6V189.2ZM117.4 189.2H125.4V181.2H117.4V189.2ZM117.4 229.2V237.2H125.4V229.2H117.4ZM96.6 229.2V221.2H88.6V229.2H96.6ZM96.6 280V288H104.6V280H96.6ZM52.6 280H44.6V288H52.6V280ZM52.6 229.2H60.6V221.2H52.6V229.2ZM-31.4 229.2H-39.4V237.2H-31.4V229.2ZM52.6 189.2V197.2H60.6V189.2H52.6ZM52.6 85.6H60.6L45.2264 82.4968L52.6 85.6ZM9 189.2L1.62638 186.097L-3.04639 197.2H9V189.2ZM-24.0316 192.316L55.9684 3.11558L41.2316 -3.11561L-38.7684 186.084L-24.0316 192.316ZM48.6 7.99998H96.6V-8.00002H48.6V7.99998ZM88.6 -1.90735e-05V189.2H104.6V-1.90735e-05H88.6ZM96.6 197.2H117.4V181.2H96.6V197.2ZM109.4 189.2V229.2H125.4V189.2H109.4ZM117.4 221.2H96.6V237.2H117.4V221.2ZM88.6 229.2V280H104.6V229.2H88.6ZM96.6 272H52.6V288H96.6V272ZM60.6 280V229.2H44.6V280H60.6ZM52.6 221.2H-31.4V237.2H52.6V221.2ZM-23.4 229.2V189.2H-39.4V229.2H-23.4ZM60.6 189.2V85.6H44.6V189.2H60.6ZM45.2264 82.4968L1.62638 186.097L16.3736 192.303L59.9736 88.7032L45.2264 82.4968ZM9 197.2H52.6V181.2H9V197.2Z" fill="url(#paint0_linear_2040_4)" mask="url(#path-1-outside-1_2040_4)"/>
</g>
<defs>
<linearGradient id="paint0_linear_2040_4" x1="-33.1191" y1="-474.14" x2="123.038" y2="-473.82" gradientUnits="userSpaceOnUse">
<stop stop-color="#F39200"/>
<stop offset="1" stop-color="#E05F02"/>
</linearGradient>
</defs>
</svg>
