<svg width="110" height="260" viewBox="0 0 110 260" fill="none" xmlns="http://www.w3.org/2000/svg">
<g opacity="0.1">
<mask id="path-1-outside-1_2040_82" maskUnits="userSpaceOnUse" x="-32" y="-8" width="150" height="304" fill="black">
<rect fill="white" x="-32" y="-8" width="150" height="304"/>
<path d="M-23.8 73.6C-23.8 49.8667 -18.3333 31.8667 -7.4 19.6C3.53333 7.06666 20.4667 0.799998 43.4 0.799998C65 0.799998 81.2667 6.93332 92.2 19.2C103.4 31.2 109 48.5333 109 71.2V78.4H67.4V68.4C67.4 58.2667 65.2667 51.2 61 47.2C57 42.9333 51.5333 40.8 44.6 40.8C36.8667 40.8 30.8667 43.2 26.6 48C22.3333 52.8 20.2 61.8667 20.2 75.2V126.4C27.9333 109.867 41.5333 101.6 61 101.6C77.2667 101.6 89.4 107.067 97.4 118C105.667 128.933 109.8 144.8 109.8 165.6V216.8C109.8 239.467 104.067 256.933 92.6 269.2C81.1333 281.2 64.6 287.2 43 287.2C21.4 287.2 4.86667 281.2 -6.6 269.2C-18.0667 256.933 -23.8 239.467 -23.8 216.8V73.6ZM43 141.6C36.0667 141.6 30.4667 143.733 26.2 148C22.2 152 20.2 159.067 20.2 169.2V219.6C20.2 229.733 22.2 236.8 26.2 240.8C30.4667 244.8 36.0667 246.8 43 246.8C49.9333 246.8 55.4 244.8 59.4 240.8C63.6667 236.8 65.8 229.733 65.8 219.6V169.2C65.8 159.067 63.6667 152 59.4 148C55.4 143.733 49.9333 141.6 43 141.6Z"/>
</mask>
<path d="M-7.4 19.6L-1.42789 24.923L-1.3995 24.8911L-1.37145 24.8589L-7.4 19.6ZM92.2 19.2L86.2279 24.5229L86.289 24.5914L86.3516 24.6585L92.2 19.2ZM109 78.4V86.4H117V78.4H109ZM67.4 78.4H59.4V86.4H67.4V78.4ZM61 47.2L55.1637 52.6715L55.3402 52.8598L55.5285 53.0363L61 47.2ZM20.2 126.4H12.2L27.4465 129.789L20.2 126.4ZM97.4 118L90.9438 122.724L90.9809 122.775L91.0187 122.825L97.4 118ZM92.6 269.2L98.3839 274.727L98.4142 274.695L98.4442 274.663L92.6 269.2ZM-6.6 269.2L-12.4442 274.663L-12.4142 274.695L-12.3839 274.727L-6.6 269.2ZM26.2 148L31.8569 153.657L31.8569 153.657L26.2 148ZM26.2 240.8L20.5431 246.457L20.6344 246.548L20.7285 246.636L26.2 240.8ZM59.4 240.8L53.9285 234.964L53.8344 235.052L53.7432 235.143L59.4 240.8ZM59.4 148L53.5637 153.472L53.7402 153.66L53.9285 153.836L59.4 148ZM-15.8 73.6C-15.8 50.9695 -10.578 35.1889 -1.42789 24.923L-13.3721 14.277C-26.0887 28.5444 -31.8 48.7638 -31.8 73.6H-15.8ZM-1.37145 24.8589C7.53055 14.6542 21.8642 8.8 43.4 8.8V-7.2C19.0692 -7.2 -0.46388 -0.520893 -13.4286 14.341L-1.37145 24.8589ZM43.4 8.8C63.4776 8.8 77.2533 14.4539 86.2279 24.5229L98.1721 13.877C85.2801 -0.587232 66.5224 -7.2 43.4 -7.2V8.8ZM86.3516 24.6585C95.716 34.6918 101 49.7805 101 71.2H117C117 47.2862 111.084 27.7081 98.0484 13.7414L86.3516 24.6585ZM101 71.2V78.4H117V71.2H101ZM109 70.4H67.4V86.4H109V70.4ZM75.4 78.4V68.4H59.4V78.4H75.4ZM75.4 68.4C75.4 57.5758 73.1992 47.6708 66.4715 41.3637L55.5285 53.0363C57.3342 54.7292 59.4 58.9575 59.4 68.4H75.4ZM66.8363 41.7285C61.0442 35.5502 53.2993 32.8 44.6 32.8V48.8C49.7673 48.8 52.9558 50.3165 55.1637 52.6715L66.8363 41.7285ZM44.6 32.8C35.09 32.8 26.7134 35.8308 20.6207 42.6851L32.5793 53.3149C35.0199 50.5692 38.6433 48.8 44.6 48.8V32.8ZM20.6207 42.6851C14.2269 49.8782 12.2 61.6739 12.2 75.2H28.2C28.2 62.0594 30.4398 55.7218 32.5793 53.3149L20.6207 42.6851ZM12.2 75.2V126.4H28.2V75.2H12.2ZM27.4465 129.789C30.7459 122.735 35.093 117.835 40.3553 114.636C45.6503 111.418 52.4053 109.6 61 109.6V93.6C50.128 93.6 40.3497 95.9157 32.0447 100.964C23.707 106.032 17.3874 113.531 12.9535 123.011L27.4465 129.789ZM61 109.6C75.2935 109.6 84.762 114.276 90.9438 122.724L103.856 113.276C94.038 99.8577 79.2399 93.6 61 93.6V109.6ZM91.0187 122.825C97.8161 131.815 101.8 145.688 101.8 165.6H117.8C117.8 143.912 113.517 126.052 103.781 113.175L91.0187 122.825ZM101.8 165.6V216.8H117.8V165.6H101.8ZM101.8 216.8C101.8 238.161 96.4121 253.407 86.7558 263.737L98.4442 274.663C111.721 260.46 117.8 240.773 117.8 216.8H101.8ZM86.8161 263.673C77.2776 273.655 63.1062 279.2 43 279.2V295.2C66.0938 295.2 84.9891 288.745 98.3839 274.727L86.8161 263.673ZM43 279.2C22.8938 279.2 8.72245 273.655 -0.816072 263.673L-12.3839 274.727C1.01089 288.745 19.9062 295.2 43 295.2V279.2ZM-0.755783 263.737C-10.4121 253.407 -15.8 238.161 -15.8 216.8H-31.8C-31.8 240.773 -25.7212 260.46 -12.4442 274.663L-0.755783 263.737ZM-15.8 216.8V73.6H-31.8V216.8H-15.8ZM43 133.6C34.288 133.6 26.5364 136.35 20.5431 142.343L31.8569 153.657C34.3969 151.117 37.8454 149.6 43 149.6V133.6ZM20.5432 142.343C14.2252 148.661 12.2 158.482 12.2 169.2H28.2C28.2 159.652 30.1748 155.339 31.8569 153.657L20.5432 142.343ZM12.2 169.2V219.6H28.2V169.2H12.2ZM12.2 219.6C12.2 230.318 14.2252 240.139 20.5431 246.457L31.8569 235.143C30.1748 233.461 28.2 229.148 28.2 219.6H12.2ZM20.7285 246.636C26.7467 252.278 34.4353 254.8 43 254.8V238.8C37.698 238.8 34.1866 237.322 31.6715 234.964L20.7285 246.636ZM43 254.8C51.5461 254.8 59.2314 252.282 65.0569 246.457L53.7432 235.143C51.5686 237.318 48.3206 238.8 43 238.8V254.8ZM64.8715 246.636C71.5992 240.329 73.8 230.424 73.8 219.6H57.8C57.8 229.042 55.7342 233.271 53.9285 234.964L64.8715 246.636ZM73.8 219.6V169.2H57.8V219.6H73.8ZM73.8 169.2C73.8 158.376 71.5992 148.471 64.8715 142.164L53.9285 153.836C55.7342 155.529 57.8 159.758 57.8 169.2H73.8ZM65.2363 142.528C59.4442 136.35 51.6993 133.6 43 133.6V149.6C48.1674 149.6 51.3558 151.116 53.5637 153.472L65.2363 142.528Z" fill="url(#paint0_linear_2040_82)" mask="url(#path-1-outside-1_2040_82)"/>
</g>
<defs>
<linearGradient id="paint0_linear_2040_82" x1="-33.1191" y1="-470.14" x2="123.038" y2="-469.82" gradientUnits="userSpaceOnUse">
<stop stop-color="#F39200"/>
<stop offset="1" stop-color="#E05F02"/>
</linearGradient>
</defs>
</svg>
