<svg width="61" height="61" viewBox="0 0 61 61" fill="none" xmlns="http://www.w3.org/2000/svg">
<path fill-rule="evenodd" clip-rule="evenodd" d="M45.75 20.3333C45.75 18.2277 47.4569 16.5208 49.5625 16.5208C51.6681 16.5208 53.375 18.2277 53.375 20.3333V46.1348L49.5625 51.8535L45.75 46.1348V20.3333ZM49.5625 19.0625C48.8606 19.0625 48.2917 19.6314 48.2917 20.3333V45.3652L49.5625 47.2714L50.8333 45.3652V20.3333C50.8333 19.6314 50.2644 19.0625 49.5625 19.0625Z" fill="#E1E1E1"/>
<path fill-rule="evenodd" clip-rule="evenodd" d="M52.1042 25.4167H47.0209V22.875H52.1042V25.4167Z" fill="#E1E1E1"/>
<path fill-rule="evenodd" clip-rule="evenodd" d="M12.7083 10.1667C11.3046 10.1667 10.1667 11.3046 10.1667 12.7083V48.2906C10.1667 49.6944 11.3046 50.8323 12.7083 50.8323H38.125C39.5288 50.8323 40.6667 49.6944 40.6667 48.2906V12.7083C40.6667 11.3046 39.5288 10.1667 38.125 10.1667H12.7083ZM7.625 12.7083C7.625 9.90088 9.90088 7.625 12.7083 7.625H38.125C40.9324 7.625 43.2083 9.90088 43.2083 12.7083V48.2906C43.2083 51.0982 40.9324 53.374 38.125 53.374H12.7083C9.90088 53.374 7.625 51.0982 7.625 48.2906V12.7083Z" fill="#E1E1E1"/>
<path fill-rule="evenodd" clip-rule="evenodd" d="M25.4166 19.0625C25.4166 18.3606 25.9856 17.7917 26.6875 17.7917H36.8541C37.556 17.7917 38.125 18.3606 38.125 19.0625C38.125 19.7644 37.556 20.3334 36.8541 20.3334H26.6875C25.9856 20.3334 25.4166 19.7644 25.4166 19.0625Z" fill="#E1E1E1"/>
<path fill-rule="evenodd" clip-rule="evenodd" d="M25.4166 24.1458C25.4166 23.444 25.9856 22.875 26.6875 22.875H36.8541C37.556 22.875 38.125 23.444 38.125 24.1458C38.125 24.8477 37.556 25.4167 36.8541 25.4167H26.6875C25.9856 25.4167 25.4166 24.8477 25.4166 24.1458Z" fill="#E1E1E1"/>
<path fill-rule="evenodd" clip-rule="evenodd" d="M25.4166 35.5833C25.4166 34.8815 25.9856 34.3125 26.6875 34.3125H36.8541C37.556 34.3125 38.125 34.8815 38.125 35.5833C38.125 36.2852 37.556 36.8542 36.8541 36.8542H26.6875C25.9856 36.8542 25.4166 36.2852 25.4166 35.5833Z" fill="#E1E1E1"/>
<path fill-rule="evenodd" clip-rule="evenodd" d="M25.4166 40.6666C25.4166 39.9648 25.9856 39.3958 26.6875 39.3958H36.8541C37.556 39.3958 38.125 39.9648 38.125 40.6666C38.125 41.3685 37.556 41.9375 36.8541 41.9375H26.6875C25.9856 41.9375 25.4166 41.3685 25.4166 40.6666Z" fill="#E1E1E1"/>
<path fill-rule="evenodd" clip-rule="evenodd" d="M15.25 35.5834V39.3959H19.0625V35.5834H15.25ZM13.9792 33.0417H20.3334C21.0353 33.0417 21.6042 33.6106 21.6042 34.3125V40.6667C21.6042 41.3686 21.0353 41.9375 20.3334 41.9375H13.9792C13.2773 41.9375 12.7084 41.3686 12.7084 40.6667V34.3125C12.7084 33.6106 13.2773 33.0417 13.9792 33.0417Z" fill="#E1E1E1"/>
<path fill-rule="evenodd" clip-rule="evenodd" d="M22.5028 18.1639C22.9991 18.6601 22.9991 19.4648 22.5028 19.9611L16.5209 25.943L13.0806 22.5028C12.5843 22.0065 12.5843 21.2018 13.0806 20.7055C13.5769 20.2093 14.3815 20.2093 14.8778 20.7055L16.5209 22.3486L20.7056 18.1639C21.2019 17.6676 22.0066 17.6676 22.5028 18.1639Z" fill="#E1E1E1"/>
</svg>
