<svg width="61" height="61" viewBox="0 0 61 61" fill="none" xmlns="http://www.w3.org/2000/svg">
<path fill-rule="evenodd" clip-rule="evenodd" d="M39.3959 17.7916C39.3959 17.0898 39.9648 16.5208 40.6667 16.5208H45.75C46.4519 16.5208 47.0209 17.0898 47.0209 17.7916V20.3333H50.8334C51.5353 20.3333 52.1042 20.9023 52.1042 21.6041V29.2291H55.9167V31.7708H52.1042V39.3958C52.1042 40.0977 51.5353 40.6666 50.8334 40.6666H47.0209V43.2083C47.0209 43.9102 46.4519 44.4791 45.75 44.4791H40.6667C39.9648 44.4791 39.3959 43.9102 39.3959 43.2083V31.7708H21.6042V43.2083C21.6042 43.9102 21.0353 44.4791 20.3334 44.4791H15.25C14.5482 44.4791 13.9792 43.9102 13.9792 43.2083V40.6666H10.1667C9.46485 40.6666 8.89587 40.0977 8.89587 39.3958V31.7708H5.08337V29.2291H8.89587V21.6041C8.89587 20.9023 9.46485 20.3333 10.1667 20.3333H13.9792V17.7916C13.9792 17.0898 14.5482 16.5208 15.25 16.5208H20.3334C21.0353 16.5208 21.6042 17.0898 21.6042 17.7916V29.2291H39.3959V17.7916ZM16.5209 41.9375H19.0625V19.0625H16.5209V41.9375ZM13.9792 22.875H11.4375V38.125H13.9792V22.875ZM47.0209 38.125V22.875H49.5625V38.125H47.0209ZM44.4792 19.0625V41.9375H41.9375V19.0625H44.4792Z" fill="#E1E1E1"/>
</svg>
