<?xml version="1.0" standalone="no"?>
<!DOCTYPE svg PUBLIC "-//W3C//DTD SVG 20010904//EN"
 "http://www.w3.org/TR/2001/REC-SVG-20010904/DTD/svg10.dtd">
<svg version="1.0" xmlns="http://www.w3.org/2000/svg"
 width="512.000000pt" height="512.000000pt" viewBox="0 0 512.000000 512.000000"
 preserveAspectRatio="xMidYMid meet">

<g transform="translate(0.000000,512.000000) scale(0.100000,-0.100000)"
fill="#000000" stroke="none">
<path d="M2325 5114 c-22 -2 -92 -9 -155 -14 -560 -51 -1031 -238 -1239 -494
-57 -71 -123 -202 -146 -291 -93 -359 31 -816 377 -1387 l89 -148 -67 -77
c-307 -360 -460 -836 -425 -1317 34 -456 180 -783 452 -1011 232 -195 519
-306 919 -357 168 -21 730 -18 900 5 515 70 875 266 1094 594 141 213 213 444
237 769 35 481 -119 958 -425 1317 l-67 77 92 152 c115 190 256 478 307 628
173 507 111 898 -181 1148 -227 194 -608 328 -1102 387 -123 15 -573 28 -660
19z m475 -114 c271 -19 542 -68 760 -140 216 -70 450 -210 541 -323 59 -73
115 -197 135 -297 21 -108 14 -315 -15 -443 -59 -258 -201 -568 -412 -900 -38
-60 -69 -117 -69 -127 0 -11 26 -48 59 -82 207 -222 356 -510 423 -818 20 -93
22 -133 23 -350 0 -215 -3 -259 -22 -355 -57 -279 -159 -482 -328 -650 -203
-203 -490 -327 -885 -382 -179 -25 -722 -25 -900 0 -394 55 -679 178 -885 382
-168 166 -271 371 -328 650 -19 96 -22 140 -22 355 1 217 3 257 23 350 67 308
216 596 423 818 33 34 59 71 59 82 0 11 -31 69 -70 129 -209 328 -352 640
-411 898 -29 128 -36 335 -15 443 20 102 86 243 148 314 98 114 330 248 543
316 355 112 797 159 1225 130z"/>
<path d="M2330 4609 c-431 -18 -755 -95 -935 -223 -118 -85 -158 -167 -158
-326 -1 -118 18 -203 79 -366 81 -219 327 -660 377 -678 20 -7 42 0 119 37
128 63 310 122 454 148 167 30 421 30 588 0 143 -25 325 -85 451 -146 50 -25
101 -45 113 -45 24 0 47 31 145 198 143 241 250 479 298 662 29 114 32 263 5
340 -27 77 -115 163 -218 213 -212 103 -550 171 -903 183 -82 2 -170 6 -195 7
-25 2 -124 0 -220 -4z m670 -133 c328 -43 569 -117 697 -213 101 -77 103 -262
6 -523 -55 -146 -216 -458 -295 -572 l-19 -27 -77 35 c-221 101 -510 164 -752
164 -242 0 -531 -63 -752 -164 l-77 -35 -19 27 c-81 115 -240 425 -296 574
-50 135 -68 218 -69 318 -2 146 47 211 217 291 134 63 356 113 611 138 143 15
679 6 825 -13z"/>
<path d="M1497 2498 c-206 -217 -336 -515 -368 -840 -11 -115 -11 -129 5 -152
18 -29 66 -36 85 -12 6 7 16 70 21 139 25 308 141 575 345 797 35 39 55 69 55
84 0 26 -32 56 -60 56 -8 0 -46 -32 -83 -72z"/>
<path d="M1169 1249 c-25 -25 -21 -61 26 -201 52 -159 196 -368 252 -368 57 0
71 69 22 116 -77 73 -159 230 -194 370 -25 102 -60 129 -106 83z"/>
</g>
</svg>
