<svg width="59" height="59" viewBox="0 0 59 59" fill="none" xmlns="http://www.w3.org/2000/svg">
<g clip-path="url(#clip0_200_77)">
<path fill-rule="evenodd" clip-rule="evenodd" d="M29.5 54.457C43.2833 54.457 54.457 43.2833 54.457 29.5C54.457 15.7166 43.2833 4.54297 29.5 4.54297C15.7166 4.54297 4.54297 15.7166 4.54297 29.5C4.54297 43.2833 15.7166 54.457 29.5 54.457ZM29.5 51.7048C41.7634 51.7048 51.7048 41.7634 51.7048 29.5C51.7048 17.2366 41.7634 7.29514 29.5 7.29514C17.2366 7.29514 7.29514 17.2366 7.29514 29.5C7.29514 41.7634 17.2366 51.7048 29.5 51.7048Z" fill="black"/>
<path d="M32.9515 27.789C32.8335 27.9365 24.19 34.0135 23.9835 34.22C23.777 34.4265 24.3965 35.1595 24.544 35.0755C24.6915 34.9914 33.335 28.202 33.5415 28.379C33.748 28.556 34.0135 28.851 34.0135 28.851C34.0135 28.851 34.8395 28.379 34.6625 28.143C34.4855 27.907 33.453 26.727 33.3645 26.609C33.276 26.491 32.4795 27.1105 32.5975 27.258C32.7155 27.4055 33.0695 27.6415 32.9515 27.789Z" fill="black" stroke="black"/>
<path d="M23.0691 30.7979C25.4837 30.4426 29.0576 29.6179 29.2641 29.9719C29.4706 30.3259 29.6476 31.6829 29.2641 31.6829C28.8806 31.6829 25.009 32.0986 22.3021 32.5089C20.6842 32.7542 18.1721 33.2169 18.1721 33.2169C18.1721 33.2169 16.1956 33.6594 15.4581 33.9839C14.7206 34.3084 14.3076 34.4559 14.1011 35.1049C13.8946 35.7539 15.2811 36.5504 15.7531 36.8749C16.2251 37.1994 17.596 37.8005 18.8211 38.2909C20.7901 39.0791 21.966 39.3293 24.0131 39.8839C26.0467 40.4349 29.2641 41.1229 29.2641 41.1229C29.2641 41.1229 29.4411 42.6569 29.2641 42.8929C29.0871 43.1289 25.9011 42.4799 24.7211 42.1259C23.5411 41.7719 18.4081 40.1494 17.5231 39.8839C16.6381 39.6184 13.8061 38.1434 13.2161 37.7009C12.6261 37.2584 12.1246 36.3734 12.1246 36.3734C12.1246 36.3734 11.7423 35.2786 11.8886 34.7214C12.0445 34.1271 12.2561 33.8045 12.6851 33.3644C13.136 32.9018 14.1011 32.5089 14.1011 32.5089L17.5231 31.6829C17.5231 31.6829 20.8991 31.1172 23.0691 30.7979Z" fill="black" stroke="black"/>
<path d="M30.1196 19.9124C30.1196 19.9124 30.2072 18.045 29.5591 17.1689C28.908 16.289 27.7301 15.9299 27.2581 15.7529C26.7861 15.5759 25.6664 15.4922 24.6621 15.5169C23.9217 15.5352 23.5706 15.5759 22.8036 15.7529C22.0366 15.9299 21.7424 16.1474 21.0631 16.4019C20.2729 16.698 19.7692 16.9424 19.0135 17.309L18.9981 17.3164C18.2354 17.6864 17.4641 18.0539 17.2871 18.4374C17.1101 18.8209 18.1131 19.5879 18.1131 19.5879L19.4701 18.7619L22.1841 17.4639C22.1841 17.4639 25.2521 16.6969 26.4026 17.1689C27.5531 17.6409 27.9661 18.2899 27.9661 18.2899C27.9661 18.2899 28.291 18.8226 28.3791 19.2044C28.4801 19.6422 28.6151 19.7059 28.6151 20.7089C28.6151 21.7119 28.5561 24.4849 28.6151 26.1959C28.6741 27.9069 28.6741 36.6389 28.6741 36.6389C28.6741 36.6389 28.4971 42.3324 28.6741 42.8929C28.8511 43.4534 28.9691 43.4239 30.3261 43.4829C31.6831 43.5419 32.4443 43.0699 32.2731 41.0639C32.1018 39.0579 32.2731 37.0224 32.2731 37.0224C32.2731 37.0224 32.5449 35.897 32.8926 35.2524C33.213 34.6583 33.8956 33.7774 33.8956 33.7774C33.8956 33.7774 34.6016 33.0038 35.2231 32.9219C35.8636 32.8376 36.2995 33.0853 36.7571 33.5414C37.1696 33.9527 37.4061 34.8099 37.4061 34.8099C37.4061 34.8099 37.4601 34.8689 37.7601 36.1079C38.06 37.3469 38.2026 38.2319 38.2026 39.1169C38.2026 40.0019 38.0551 40.2379 38.0551 41.4769C38.0551 42.7159 39.0286 42.9519 40.0021 42.8929C40.9756 42.8339 41.4476 42.4799 41.4476 41.4769C41.4476 40.4739 41.4521 40.2163 41.4476 39.1169C41.4432 38.0635 41.4136 37.4602 41.1821 36.4324C40.9023 35.1906 40.5874 34.5243 40.0021 33.3939C39.3761 32.1852 38.0551 31.1814 38.0551 30.5029C38.0551 29.8244 39.389 28.6773 40.0021 27.3759C40.6728 25.9521 41.0682 25.1053 41.2411 23.5409C41.4113 22.0004 41.3281 21.0738 40.8871 19.5879C40.4413 18.0859 39.5301 16.8444 38.9991 16.0479C38.4681 15.2514 37.6854 15.9 37.2881 16.4609C36.7866 17.1689 36.7866 17.6409 36.7866 17.6409C36.7866 17.6409 37.3176 18.6144 37.4651 18.9979C37.6126 19.3814 38.0112 20.6504 38.0551 21.7119C38.1213 23.317 37.8781 24.7209 37.4651 25.7829C37.0521 26.8449 36.0491 28.3595 35.2231 29.0279C34.3971 29.6964 32.7656 30.2114 31.6831 31.5059C30.784 32.581 30.0311 34.6919 30.0311 34.6919C30.0311 34.6919 30.0043 25.6957 30.1196 19.9124Z" fill="black" stroke="black"/>
<path d="M39.711 20.8299C39.711 21.2429 39.6474 21.2429 39.357 21.2429C39.0666 21.2429 39.003 21.3019 39.003 20.8889C38.9689 20.4169 39.1614 20.4759 39.357 20.4759C39.6225 20.4759 39.711 20.4169 39.711 20.8299Z" fill="#6D6B6B"/>
<path d="M39.9326 22.6825C39.8832 23.0926 39.8201 23.085 39.5318 23.0502C39.2435 23.0155 39.1733 23.0665 39.2227 22.6565C39.2452 22.1837 39.4294 22.2653 39.6235 22.2887C39.8871 22.3205 39.982 22.2725 39.9326 22.6825Z" fill="#6D6B6B"/>
<path d="M39.8735 24.3935C39.8241 24.8035 39.761 24.7959 39.4727 24.7612C39.1844 24.7265 39.1142 24.7774 39.1636 24.3674C39.1861 23.8947 39.3703 23.9763 39.5644 23.9996C39.828 24.0314 39.9229 23.9834 39.8735 24.3935Z" fill="#6D6B6B"/>
<path d="M39.3236 25.9705C39.1584 26.349 39.1001 26.3236 38.834 26.2075C38.5678 26.0913 38.4859 26.1199 38.6511 25.7414C38.8087 25.2952 38.9616 25.4263 39.1408 25.5045C39.3841 25.6107 39.4888 25.592 39.3236 25.9705Z" fill="#6D6B6B"/>
<path d="M39.2574 34.7273C39.2861 35.0413 39.2336 35.0461 38.994 35.068C38.7543 35.09 38.7059 35.1396 38.6772 34.8256C38.6162 34.4694 38.7792 34.4997 38.9405 34.4849C39.1597 34.4649 39.2286 34.4133 39.2574 34.7273Z" fill="#6D6B6B"/>
<path d="M39.8377 36.5753C39.9099 36.8822 39.8585 36.8942 39.6243 36.9493C39.3901 37.0044 39.3491 37.0604 39.2769 36.7535C39.1668 36.4092 39.3325 36.4165 39.4902 36.3793C39.7044 36.329 39.7654 36.2684 39.8377 36.5753Z" fill="#6D6B6B"/>
<path d="M40.0914 38.3842C40.1324 38.6968 40.0801 38.7036 39.8415 38.7349C39.6029 38.7662 39.5565 38.8178 39.5155 38.5052C39.4406 38.1515 39.6047 38.1754 39.7654 38.1544C39.9835 38.1257 40.0504 38.0715 40.0914 38.3842Z" fill="#6D6B6B"/>
<path d="M30.331 39.0356C30.6461 39.0266 30.6477 39.0793 30.6545 39.3198C30.6614 39.5604 30.708 39.6118 30.3928 39.6208C30.0333 39.6594 30.0738 39.4985 30.0692 39.3366C30.0629 39.1166 30.0158 39.0446 30.331 39.0356Z" fill="#6D6B6B"/>
<path d="M30.2939 37.4897C30.598 37.4067 30.612 37.4575 30.6753 37.6897C30.7388 37.9218 30.7961 37.9608 30.4919 38.0439C30.1518 38.166 30.1532 38.0002 30.1105 37.8439C30.0525 37.6316 29.9897 37.5727 30.2939 37.4897Z" fill="#6D6B6B"/>
<path d="M30.4985 40.7767C30.8137 40.7872 30.8119 40.8398 30.8039 41.0803C30.796 41.3209 30.8392 41.375 30.5241 41.3646C30.163 41.3809 30.2133 41.2229 30.2187 41.0609C30.226 40.841 30.1834 40.7662 30.4985 40.7767Z" fill="#6D6B6B"/>
<path d="M30.5295 35.6896C30.8077 35.5412 30.8325 35.5877 30.9458 35.8C31.0591 36.0123 31.1237 36.0376 30.8455 36.186C30.5409 36.3806 30.5055 36.2186 30.4292 36.0756C30.3256 35.8816 30.2514 35.8381 30.5295 35.6896Z" fill="#6D6B6B"/>
<path d="M40.0975 40.2235C40.0644 40.537 40.012 40.5315 39.7727 40.5062C39.5334 40.4809 39.4762 40.5202 39.5094 40.2066C39.519 39.8453 39.6731 39.9069 39.8342 39.9239C40.053 39.947 40.1306 39.9099 40.0975 40.2235Z" fill="#6D6B6B"/>
</g>
<defs>
<clipPath id="clip0_200_77">
<rect width="59" height="59" fill="white"/>
</clipPath>
</defs>
</svg>
