<svg width="64" height="64" viewBox="0 0 64 64" fill="none" xmlns="http://www.w3.org/2000/svg">
<path fill-rule="evenodd" clip-rule="evenodd" d="M6.70277 16.0054C6.90291 19.5935 7.92417 21.8147 9.41977 23.1835C8.68953 23.7274 8.26617 24.6403 8.42161 25.6274C9.18475 30.4735 11.0927 40.7242 15.0038 52.2787C15.7812 54.5752 18.8858 54.5752 19.6632 52.2787C23.5742 40.7242 25.4822 30.4735 26.2454 25.6274C26.4008 24.6403 25.9774 23.7274 25.2472 23.1834C26.7428 21.8147 27.764 19.5935 27.9641 16.0054C28.0052 15.2702 27.4012 14.6646 26.6649 14.6751C24.4941 14.7063 22.77 14.8382 21.4249 15.2903C20.8697 13.8258 19.7488 12.443 18.0618 11.1808C17.6309 10.8583 17.036 10.8583 16.605 11.1808C14.9318 12.4328 13.8153 13.8032 13.2556 15.2546C11.9494 14.8694 10.2389 14.7166 8.00545 14.6775C7.26918 14.6646 6.66175 15.2702 6.70277 16.0054ZM19.8413 18.6359L18.9314 16.2355C18.6794 15.571 18.187 14.8236 17.3334 14.0354C16.4888 14.8154 15.9978 15.5552 15.7436 16.2143L14.859 18.5076L12.5012 17.8123C11.8057 17.6072 10.856 17.4703 9.52166 17.3974C9.91807 19.9682 10.8709 21.0547 11.7396 21.6166C12.9816 22.4198 14.7913 22.6642 17.2936 22.6667H17.3733C19.8757 22.6642 21.6853 22.4198 22.9273 21.6166C23.7968 21.0542 24.7506 19.9662 25.1464 17.39C23.8533 17.4578 22.9456 17.5924 22.2746 17.8179L19.8413 18.6359ZM11.0749 25.3334H23.5921C23.2101 27.7432 22.5469 31.4656 21.499 36H16V38.6667H20.86C19.939 42.3764 18.7793 46.51 17.3334 50.84C16.8612 49.4254 16.4193 48.0315 16.0064 46.6667H17.3333V44H15.2248C13.9481 39.5014 12.9929 35.3974 12.2947 32H16V29.3334H11.7699C11.4751 27.7651 11.2466 26.4167 11.0749 25.3334Z" fill="#E1E1E1"/>
<path d="M50.99 37.3731C51.7044 37.5517 52.1388 38.2756 51.9602 38.99C51.1742 42.1344 48.8011 44.5073 45.6567 45.2935C44.9423 45.4721 44.2184 45.0377 44.0399 44.3233C43.8612 43.6089 44.2956 42.8851 45.01 42.7064C47.199 42.1592 48.8259 40.5321 49.3732 38.3432C49.5518 37.6288 50.2756 37.1945 50.99 37.3731Z" fill="#E1E1E1"/>
<path fill-rule="evenodd" clip-rule="evenodd" d="M43.5344 28.0365C42.056 24.5793 42.3123 20.9066 44.9428 18.2761L43.0572 16.3905C39.9513 19.4962 39.412 23.5604 40.4537 27.2944C34.3528 24.5341 28 29.6102 28 37.3333C28 44.697 34.5665 50.6666 42.6667 50.6666C50.7668 50.6666 57.3333 44.697 57.3333 37.3333C57.3333 29.0397 50.0073 23.7986 43.5344 28.0365ZM42.6667 32.0816L41.0008 30.7489C38.5236 28.767 36.0829 28.8772 34.2347 30.0188C32.2805 31.2257 30.6667 33.81 30.6667 37.3333C30.6667 42.9908 35.7944 48 42.6667 48C49.5389 48 54.6667 42.9908 54.6667 37.3333C54.6667 33.81 53.0528 31.2257 51.0987 30.0188C49.2504 28.8772 46.8097 28.767 44.3325 30.7489L42.6667 32.0816Z" fill="#E1E1E1"/>
<path d="M45.3334 24C49.3334 24 52 21.3333 52 17.3333C48 17.3333 45.3334 20 45.3334 24Z" fill="#E1E1E1"/>
</svg>
