<svg width="146" height="11" viewBox="0 0 146 11" fill="none" xmlns="http://www.w3.org/2000/svg">
<path d="M8.35352 2.36084H11.1973V5.94727H10.4863C10.0208 5.94727 9.67806 5.8986 9.45801 5.80127C9.23796 5.69971 9.06445 5.58757 8.9375 5.46484C8.81478 5.33789 8.70898 5.17285 8.62012 4.96973C8.44238 4.55501 8.35352 3.97949 8.35352 3.24316V2.36084ZM4.24658 2.36084H7.66162V11H4.24658V2.36084ZM0.691895 2.36084H3.53564V3.24316C3.53564 4.33073 3.33887 5.07129 2.94531 5.46484C2.6237 5.78646 2.10954 5.94727 1.40283 5.94727H0.691895V2.36084ZM17.5449 6.32812C17.5449 5.1263 18.3215 4.52539 19.8745 4.52539H20.7632V7.7627H17.5449V6.32812ZM13.1016 4.52539H16.6309V11H13.1016V4.52539ZM27.0664 4.52539H30.5703V11H30.1704C29.0701 11 28.2788 10.8075 27.7964 10.4224C27.3097 10.033 27.0664 9.38981 27.0664 8.49268V4.52539ZM22.4834 7.83887C22.4834 7.37337 22.5448 6.94173 22.6675 6.54395C22.7902 6.14193 22.9806 5.79069 23.2388 5.49023C23.7974 4.84701 24.5972 4.52539 25.6382 4.52539H26.127V11H25.7969C24.7305 11 23.9053 10.708 23.3213 10.124C22.7627 9.56543 22.4834 8.80371 22.4834 7.83887ZM34.1948 2.78613C32.7941 2.78613 32.0938 2.34814 32.0938 1.47217C32.0938 1.0236 32.2609 0.701986 32.5952 0.507324C32.9295 0.308431 33.4395 0.208984 34.125 0.208984C34.8105 0.208984 35.3162 0.308431 35.6421 0.507324C35.9679 0.701986 36.1309 1.02572 36.1309 1.47852C36.1309 1.92708 35.9785 2.25716 35.6738 2.46875C35.3734 2.68034 34.8804 2.78613 34.1948 2.78613ZM32.4492 4.53174H35.8643V11H32.4492V4.53174ZM42.231 4.52539H42.8022C44.3595 4.52539 45.2884 5.05436 45.5889 6.1123C45.6904 6.45508 45.7412 6.85075 45.7412 7.29932V11H42.231V4.52539ZM37.6543 4.52539H41.1836V11H37.6543V4.52539ZM51.9683 4.52539H52.3872C53.9868 4.52539 54.9622 5.06706 55.3135 6.15039C55.4277 6.51009 55.4849 6.92692 55.4849 7.40088V8.09912H51.9683V4.52539ZM47.3853 7.83887C47.3853 7.37337 47.4466 6.94173 47.5693 6.54395C47.6921 6.14193 47.8825 5.79069 48.1406 5.49023C48.6992 4.84701 49.499 4.52539 50.54 4.52539H51.0288V11H50.6987C49.6323 11 48.8071 10.708 48.2231 10.124C47.6646 9.56543 47.3853 8.80371 47.3853 7.83887ZM51.9683 9.34326H55.1421V9.521C55.1421 9.91455 55.0003 10.2467 54.7168 10.5176C54.3698 10.8392 53.8768 11 53.2378 11H51.9683V9.34326ZM61.9531 6.32812C61.9531 5.1263 62.7297 4.52539 64.2827 4.52539H65.1714V7.7627H61.9531V6.32812ZM57.5098 4.52539H61.0391V11H57.5098V4.52539ZM73.271 2.36084H76.686V10.9873H73.271V2.36084ZM77.7397 4.70947C77.7397 3.77425 77.9767 3.14583 78.4507 2.82422C78.8993 2.52376 79.7435 2.37354 80.9834 2.37354H81.6245V3.57324C81.6245 4.52962 81.3812 5.21094 80.8945 5.61719C80.3994 6.02344 79.5467 6.22656 78.3364 6.22656H77.7397V4.70947ZM77.7397 6.88672H78.3364C79.5298 6.88672 80.3825 7.1237 80.8945 7.59766C81.3812 8.05046 81.6245 8.76562 81.6245 9.74316V11H80.9834C79.7689 11 78.9246 10.818 78.4507 10.4541C77.9767 10.0859 77.7397 9.42578 77.7397 8.47363V6.88672ZM87.6992 4.52539H88.188C89.229 4.52539 90.0288 4.84701 90.5874 5.49023C91.091 6.07422 91.3428 6.84863 91.3428 7.81348C91.3428 8.79525 91.0635 9.56543 90.5049 10.124C89.9209 10.708 89.0957 11 88.0293 11H87.6992V4.52539ZM83.0273 7.83887C83.0273 7.37337 83.0887 6.94173 83.2114 6.54395C83.3341 6.14193 83.5246 5.79069 83.7827 5.49023C84.3413 4.84701 85.1411 4.52539 86.1821 4.52539H86.6709V11H86.3408C85.2744 11 84.4492 10.708 83.8652 10.124C83.3066 9.56543 83.0273 8.80371 83.0273 7.83887ZM102.559 4.52539H103.13C104.688 4.52539 105.617 5.05436 105.917 6.1123C106.019 6.45508 106.069 6.85075 106.069 7.29932V11H102.559V4.52539ZM97.8491 4.52539H98.4204C99.9777 4.52539 100.907 5.05436 101.207 6.1123C101.309 6.45508 101.359 6.85075 101.359 7.29932V11H97.8491V4.52539ZM93.1265 4.52539H96.6558V11H93.1265V4.52539ZM112.557 4.52539H116.061V11H115.661C114.56 11 113.769 10.8075 113.287 10.4224C112.8 10.033 112.557 9.38981 112.557 8.49268V4.52539ZM107.974 7.83887C107.974 7.37337 108.035 6.94173 108.158 6.54395C108.28 6.14193 108.471 5.79069 108.729 5.49023C109.288 4.84701 110.087 4.52539 111.128 4.52539H111.617V11H111.287C110.221 11 109.396 10.708 108.812 10.124C108.253 9.56543 107.974 8.80371 107.974 7.83887ZM122.535 6.32812C122.535 5.1263 123.312 4.52539 124.865 4.52539H125.753V7.7627H122.535V6.32812ZM118.092 4.52539H121.621V11H118.092V4.52539ZM132.031 4.52539H132.52C133.561 4.52539 134.361 4.84701 134.919 5.49023C135.423 6.07422 135.675 6.84863 135.675 7.81348C135.675 8.79525 135.396 9.56543 134.837 10.124C134.253 10.708 133.428 11 132.361 11H132.031V4.52539ZM127.359 7.83887C127.359 7.37337 127.421 6.94173 127.543 6.54395C127.666 6.14193 127.857 5.79069 128.115 5.49023C128.673 4.84701 129.473 4.52539 130.514 4.52539H131.003V11H130.673C129.606 11 128.781 10.708 128.197 10.124C127.639 9.56543 127.359 8.80371 127.359 7.83887ZM141.807 7.2168C141.807 6.26888 142.048 5.58333 142.53 5.16016C143.025 4.73698 143.819 4.52539 144.911 4.52539H145.298V6.9248C145.298 8.89258 144.735 10.1536 143.609 10.708C143.216 10.9027 142.744 11 142.194 11H141.807V7.2168ZM140.309 11C139.246 11 138.455 10.6297 137.935 9.88916C137.452 9.20361 137.211 8.21549 137.211 6.9248V4.52539H137.598C138.69 4.52539 139.483 4.73698 139.979 5.16016C140.461 5.58333 140.702 6.26888 140.702 7.2168V11H140.309Z" fill="#212121"/>
</svg>
