<svg width="79" height="256" viewBox="0 0 79 256" fill="none" xmlns="http://www.w3.org/2000/svg">
<g opacity="0.1">
<mask id="path-1-outside-1_85_158" maskUnits="userSpaceOnUse" x="-8" y="-8" width="95" height="296" fill="black">
<rect fill="white" x="-8" y="-8" width="95" height="296"/>
<path d="M0.200001 35.2C8.73333 35.2 15.6667 34.2667 21 32.4C26.6 30.5333 31.1333 28 34.6 24.8C38.0667 21.6 40.8667 17.8667 43 13.6C45.1333 9.33332 47 4.79998 48.6 -1.90735e-05H78.2V280H34.2V66.4H0.200001V35.2Z"/>
</mask>
<path d="M0.200001 35.2V27.2H-7.8V35.2H0.200001ZM21 32.4L18.4702 24.8105L18.4135 24.8294L18.3572 24.8491L21 32.4ZM34.6 24.8L40.0262 30.6784L40.0262 30.6784L34.6 24.8ZM43 13.6L50.1554 17.1777V17.1777L43 13.6ZM48.6 -1.90735e-05V-8.00002H42.8339L41.0105 -2.52984L48.6 -1.90735e-05ZM78.2 -1.90735e-05H86.2V-8.00002H78.2V-1.90735e-05ZM78.2 280V288H86.2V280H78.2ZM34.2 280H26.2V288H34.2V280ZM34.2 66.4H42.2V58.4H34.2V66.4ZM0.200001 66.4H-7.8V74.4H0.200001V66.4ZM0.200001 43.2C9.22182 43.2 17.1434 42.2257 23.6428 39.9509L18.3572 24.8491C14.19 26.3076 8.24484 27.2 0.200001 27.2V43.2ZM23.5298 39.9895C29.9435 37.8516 35.5447 34.8152 40.0262 30.6784L29.1738 18.9216C26.722 21.1847 23.2565 23.2151 18.4702 24.8105L23.5298 39.9895ZM40.0262 30.6784C44.2117 26.8149 47.5944 22.2997 50.1554 17.1777L35.8446 10.0223C34.1389 13.4336 31.9217 16.385 29.1738 18.9216L40.0262 30.6784ZM50.1554 17.1777C52.4679 12.5527 54.4769 7.6674 56.1895 2.52981L41.0105 -2.52984C39.5231 1.93257 37.7988 6.11391 35.8446 10.0223L50.1554 17.1777ZM48.6 7.99998H78.2V-8.00002H48.6V7.99998ZM70.2 -1.90735e-05V280H86.2V-1.90735e-05H70.2ZM78.2 272H34.2V288H78.2V272ZM42.2 280V66.4H26.2V280H42.2ZM34.2 58.4H0.200001V74.4H34.2V58.4ZM8.2 66.4V35.2H-7.8V66.4H8.2Z" fill="url(#paint0_linear_85_158)" mask="url(#path-1-outside-1_85_158)"/>
</g>
<defs>
<linearGradient id="paint0_linear_85_158" x1="-39.1191" y1="-474.14" x2="117.038" y2="-473.82" gradientUnits="userSpaceOnUse">
<stop stop-color="#F39200"/>
<stop offset="1" stop-color="#E05F02"/>
</linearGradient>
</defs>
</svg>
