<svg width="111" height="260" viewBox="0 0 111 260" fill="none" xmlns="http://www.w3.org/2000/svg">
<path opacity="0.1" d="M66.2 72.8C66.2 60.2667 64.0667 51.8667 59.8 47.6C55.8 43.0667 50.3333 40.8 43.4 40.8C36.4667 40.8 30.8667 42.9333 26.6 47.2C22.6 51.2 20.6 58.2667 20.6 68.4V98.4H-21V71.2C-21 48.5333 -15.5333 31.2 -4.6 19.2C6.6 6.93332 23 0.799998 44.6 0.799998C66.2 0.799998 82.4667 6.93332 93.4 19.2C104.6 31.2 110.2 48.5333 110.2 71.2C110.2 86.4 107.8 100.133 103 112.4C98.4667 124.667 92.7333 135.867 85.8 146C78.8667 156.133 71.4 165.467 63.4 174C55.4 182.267 48.2 190.267 41.8 198C35.4 205.467 30.3333 212.933 26.6 220.4C22.8667 227.867 21.6667 235.733 23 244H106.2V284H-21V249.6C-21 236 -18.8667 224 -14.6 213.6C-10.3333 203.2 -5 193.733 1.4 185.2C8.06667 176.4 15.1333 168.267 22.6 160.8C30.0667 153.067 37 144.933 43.4 136.4C50.0667 127.867 55.5333 118.533 59.8 108.4C64.0667 98.2667 66.2 86.4 66.2 72.8Z" fill="white"/>
</svg>
