<svg width="108" height="260" viewBox="0 0 108 260" fill="none" xmlns="http://www.w3.org/2000/svg">
<g opacity="0.1">
<mask id="path-1-outside-1_2040_86" maskUnits="userSpaceOnUse" x="-32" y="-8" width="148" height="304" fill="black">
<rect fill="white" x="-32" y="-8" width="148" height="304"/>
<path d="M63.8 72.8C63.8 60.2667 61.6667 51.8667 57.4 47.6C53.4 43.0667 47.9333 40.8 41 40.8C34.0667 40.8 28.4667 42.9333 24.2 47.2C20.2 51.2 18.2 58.2667 18.2 68.4V86.4H-23.4V71.2C-23.4 48.5333 -17.9333 31.2 -7 19.2C4.2 6.93332 20.6 0.799998 42.2 0.799998C63.8 0.799998 80.0667 6.93332 91 19.2C102.2 31.2 107.8 48.5333 107.8 71.2V78.4C107.8 108.267 97.5333 127.467 77 136C88.2 140.8 96.0667 148.267 100.6 158.4C105.4 168.267 107.8 180.4 107.8 194.8V216.8C107.8 239.467 102.2 256.933 91 269.2C80.0667 281.2 63.8 287.2 42.2 287.2C20.6 287.2 4.2 281.2 -7 269.2C-17.9333 256.933 -23.4 239.467 -23.4 216.8V193.6H18.2V219.6C18.2 229.733 20.2 236.933 24.2 241.2C28.4667 245.2 34.0667 247.2 41 247.2C47.9333 247.2 53.4 245.067 57.4 240.8C61.6667 236.533 63.8 228.133 63.8 215.6V193.6C63.8 180.533 61.5333 171.333 57 166C52.4667 160.667 45.1333 158 35 158H20.2V118H37.4C45.6667 118 52.0667 115.867 56.6 111.6C61.4 107.333 63.8 99.6 63.8 88.4V72.8Z"/>
</mask>
<path d="M57.4 47.6L51.4013 52.893L51.5665 53.0802L51.7432 53.2568L57.4 47.6ZM24.2 47.2L29.8569 52.8569L29.8569 52.8568L24.2 47.2ZM18.2 86.4V94.4H26.2V86.4H18.2ZM-23.4 86.4H-31.4V94.4H-23.4V86.4ZM-7 19.2L-12.9079 13.8058L-12.9136 13.8121L-7 19.2ZM91 19.2L85.0279 24.5229L85.089 24.5914L85.1516 24.6585L91 19.2ZM77 136L73.9299 128.613L56.4267 135.887L73.8487 143.353L77 136ZM100.6 158.4L93.2975 161.667L93.3499 161.784L93.4061 161.9L100.6 158.4ZM91 269.2L85.0921 263.806L85.0864 263.812L91 269.2ZM-7 269.2L-12.9721 274.523L-12.9111 274.591L-12.8484 274.659L-7 269.2ZM-23.4 193.6V185.6H-31.4V193.6H-23.4ZM18.2 193.6H26.2V185.6H18.2V193.6ZM24.2 241.2L18.3637 246.672L18.5402 246.86L18.7285 247.036L24.2 241.2ZM57.4 240.8L51.7431 235.143L51.6519 235.234L51.5637 235.328L57.4 240.8ZM57 166L63.0955 160.819L63.0955 160.819L57 166ZM20.2 158H12.2V166H20.2V158ZM20.2 118V110H12.2V118H20.2ZM56.6 111.6L51.2851 105.621L51.2 105.696L51.1171 105.774L56.6 111.6ZM71.8 72.8C71.8 66.1366 71.2388 60.1902 69.9538 55.1308C68.6787 50.1098 66.5586 45.4449 63.0569 41.9431L51.7432 53.2568C52.5081 54.0218 53.588 55.6902 54.4462 59.0692C55.2945 62.4097 55.8 66.9301 55.8 72.8H71.8ZM63.3987 42.307C57.6494 35.7911 49.8554 32.8 41 32.8V48.8C46.0113 48.8 49.1506 50.3422 51.4013 52.893L63.3987 42.307ZM41 32.8C32.288 32.8 24.5364 35.5499 18.5431 41.5431L29.8569 52.8568C32.3969 50.3168 35.8454 48.8 41 48.8V32.8ZM18.5432 41.5431C12.2252 47.8611 10.2 57.6817 10.2 68.4H26.2C26.2 58.8517 28.1748 54.5389 29.8569 52.8569L18.5432 41.5431ZM10.2 68.4V86.4H26.2V68.4H10.2ZM18.2 78.4H-23.4V94.4H18.2V78.4ZM-15.4 86.4V71.2H-31.4V86.4H-15.4ZM-15.4 71.2C-15.4 49.7351 -10.2257 34.6188 -1.08643 24.5879L-12.9136 13.8121C-25.6409 27.7811 -31.4 47.3315 -31.4 71.2H-15.4ZM-1.09212 24.5941C8.16966 14.4503 22.1339 8.8 42.2 8.8V-7.2C19.0661 -7.2 0.230347 -0.58365 -12.9079 13.8058L-1.09212 24.5941ZM42.2 8.8C62.2776 8.8 76.0533 14.4539 85.0279 24.5229L96.9721 13.877C84.0801 -0.587232 65.3224 -7.2 42.2 -7.2V8.8ZM85.1516 24.6585C94.516 34.6918 99.8 49.7805 99.8 71.2H115.8C115.8 47.2862 109.884 27.7081 96.8485 13.7414L85.1516 24.6585ZM99.8 71.2V78.4H115.8V71.2H99.8ZM99.8 78.4C99.8 92.4827 97.3705 103.339 93.0453 111.428C88.8029 119.361 82.5303 125.038 73.9299 128.613L80.0701 143.387C92.003 138.428 101.13 130.239 107.155 118.972C113.096 107.861 115.8 94.184 115.8 78.4H99.8ZM73.8487 143.353C83.3966 147.445 89.6683 153.555 93.2975 161.667L107.903 155.133C102.465 142.979 93.0034 134.155 80.1514 128.647L73.8487 143.353ZM93.4061 161.9C97.5368 170.391 99.8 181.249 99.8 194.8H115.8C115.8 179.551 113.263 166.143 107.794 154.9L93.4061 161.9ZM99.8 194.8V216.8H115.8V194.8H99.8ZM99.8 216.8C99.8 238.206 94.5212 253.479 85.0921 263.806L96.9079 274.594C109.879 260.388 115.8 240.727 115.8 216.8H99.8ZM85.0864 263.812C76.1253 273.647 62.3299 279.2 42.2 279.2V295.2C65.2701 295.2 84.008 288.753 96.9136 274.588L85.0864 263.812ZM42.2 279.2C22.0824 279.2 8.09788 273.652 -1.15156 263.741L-12.8484 274.659C0.302127 288.748 19.1176 295.2 42.2 295.2V279.2ZM-1.02789 263.877C-10.2312 253.551 -15.4 238.251 -15.4 216.8H-31.4C-31.4 240.682 -25.6354 260.315 -12.9721 274.523L-1.02789 263.877ZM-15.4 216.8V193.6H-31.4V216.8H-15.4ZM-23.4 201.6H18.2V185.6H-23.4V201.6ZM10.2 193.6V219.6H26.2V193.6H10.2ZM10.2 219.6C10.2 230.395 12.2571 240.158 18.3637 246.672L30.0363 235.728C28.143 233.709 26.2 229.072 26.2 219.6H10.2ZM18.7285 247.036C24.7467 252.678 32.4353 255.2 41 255.2V239.2C35.698 239.2 32.1866 237.722 29.6715 235.364L18.7285 247.036ZM41 255.2C49.6993 255.2 57.4442 252.45 63.2363 246.272L51.5637 235.328C49.3559 237.684 46.1674 239.2 41 239.2V255.2ZM63.0569 246.457C66.5586 242.955 68.6787 238.29 69.9538 233.269C71.2388 228.21 71.8 222.263 71.8 215.6H55.8C55.8 221.47 55.2945 225.99 54.4462 229.331C53.588 232.71 52.5081 234.378 51.7431 235.143L63.0569 246.457ZM71.8 215.6V193.6H55.8V215.6H71.8ZM71.8 193.6C71.8 180.079 69.5487 168.411 63.0955 160.819L50.9045 171.181C53.5179 174.256 55.8 180.987 55.8 193.6H71.8ZM63.0955 160.819C56.4593 153.011 46.3994 150 35 150V166C43.8673 166 48.4741 168.322 50.9045 171.181L63.0955 160.819ZM35 150H20.2V166H35V150ZM28.2 158V118H12.2V158H28.2ZM20.2 126H37.4V110H20.2V126ZM37.4 126C47.0195 126 55.6324 123.497 62.0829 117.426L51.1171 105.774C48.501 108.237 44.3138 110 37.4 110V126ZM61.9149 117.579C69.3364 110.982 71.8 100.281 71.8 88.4H55.8C55.8 98.919 53.4636 103.684 51.2851 105.621L61.9149 117.579ZM71.8 88.4V72.8H55.8V88.4H71.8Z" fill="url(#paint0_linear_2040_86)" mask="url(#path-1-outside-1_2040_86)"/>
</g>
<defs>
<linearGradient id="paint0_linear_2040_86" x1="-33.1191" y1="-470.14" x2="123.038" y2="-469.82" gradientUnits="userSpaceOnUse">
<stop stop-color="#F39200"/>
<stop offset="1" stop-color="#E05F02"/>
</linearGradient>
</defs>
</svg>
