<svg width="108" height="260" viewBox="0 0 108 260" fill="none" xmlns="http://www.w3.org/2000/svg">
<path opacity="0.1" d="M63.8 72.8C63.8 60.2667 61.6667 51.8667 57.4 47.6C53.4 43.0667 47.9333 40.8 41 40.8C34.0667 40.8 28.4667 42.9333 24.2 47.2C20.2 51.2 18.2 58.2667 18.2 68.4V86.4H-23.4V71.2C-23.4 48.5333 -17.9333 31.2 -7 19.2C4.2 6.93332 20.6 0.799998 42.2 0.799998C63.8 0.799998 80.0667 6.93332 91 19.2C102.2 31.2 107.8 48.5333 107.8 71.2V78.4C107.8 108.267 97.5333 127.467 77 136C88.2 140.8 96.0667 148.267 100.6 158.4C105.4 168.267 107.8 180.4 107.8 194.8V216.8C107.8 239.467 102.2 256.933 91 269.2C80.0667 281.2 63.8 287.2 42.2 287.2C20.6 287.2 4.2 281.2 -7 269.2C-17.9333 256.933 -23.4 239.467 -23.4 216.8V193.6H18.2V219.6C18.2 229.733 20.2 236.933 24.2 241.2C28.4667 245.2 34.0667 247.2 41 247.2C47.9333 247.2 53.4 245.067 57.4 240.8C61.6667 236.533 63.8 228.133 63.8 215.6V193.6C63.8 180.533 61.5333 171.333 57 166C52.4667 160.667 45.1333 158 35 158H20.2V118H37.4C45.6667 118 52.0667 115.867 56.6 111.6C61.4 107.333 63.8 99.6 63.8 88.4V72.8Z" fill="white"/>
</svg>
