<svg width="109" height="256" viewBox="0 0 109 256" fill="none" xmlns="http://www.w3.org/2000/svg">
<path opacity="0.1" d="M18.6 189.6V215.6C18.6 225.733 20.6 232.8 24.6 236.8C28.8667 240.8 34.4667 242.8 41.4 242.8C48.3333 242.8 53.8 240.8 57.8 236.8C62.0667 232.8 64.2 225.733 64.2 215.6V154C64.2 143.867 62.0667 136.8 57.8 132.8C53.8 128.533 48.3333 126.4 41.4 126.4C34.4667 126.4 28.8667 128.533 24.6 132.8C20.6 136.8 18.6 143.867 18.6 154V162.4H-23L-15 -1.90735e-05H101V40H24.6L21 106.8C29.2667 93.2 42.0667 86.4 59.4 86.4C75.6667 86.4 87.8 91.8667 95.8 102.8C104.067 113.733 108.2 129.6 108.2 150.4V212.8C108.2 235.467 102.6 252.933 91.4 265.2C80.4667 277.2 64.2 283.2 42.6 283.2C21 283.2 4.6 277.2 -6.6 265.2C-17.5333 252.933 -23 235.467 -23 212.8V189.6H18.6Z" fill="white"/>
</svg>
