<svg width="109" height="256" viewBox="0 0 109 256" fill="none" xmlns="http://www.w3.org/2000/svg">
<g opacity="0.1">
<mask id="path-1-outside-1_2040_23" maskUnits="userSpaceOnUse" x="-32" y="-8" width="149" height="300" fill="black">
<rect fill="white" x="-32" y="-8" width="149" height="300"/>
<path d="M18.6 189.6V215.6C18.6 225.733 20.6 232.8 24.6 236.8C28.8667 240.8 34.4667 242.8 41.4 242.8C48.3333 242.8 53.8 240.8 57.8 236.8C62.0667 232.8 64.2 225.733 64.2 215.6V154C64.2 143.867 62.0667 136.8 57.8 132.8C53.8 128.533 48.3333 126.4 41.4 126.4C34.4667 126.4 28.8667 128.533 24.6 132.8C20.6 136.8 18.6 143.867 18.6 154V162.4H-23L-15 -1.90735e-05H101V40H24.6L21 106.8C29.2667 93.2 42.0667 86.4 59.4 86.4C75.6667 86.4 87.8 91.8667 95.8 102.8C104.067 113.733 108.2 129.6 108.2 150.4V212.8C108.2 235.467 102.6 252.933 91.4 265.2C80.4667 277.2 64.2 283.2 42.6 283.2C21 283.2 4.6 277.2 -6.6 265.2C-17.5333 252.933 -23 235.467 -23 212.8V189.6H18.6Z"/>
</mask>
<path d="M18.6 189.6H26.6V181.6H18.6V189.6ZM24.6 236.8L18.9432 242.457L19.0344 242.548L19.1285 242.636L24.6 236.8ZM57.8 236.8L52.3285 230.964L52.2344 231.052L52.1432 231.143L57.8 236.8ZM57.8 132.8L51.9637 138.272L52.1402 138.46L52.3285 138.636L57.8 132.8ZM24.6 132.8L18.9432 127.143L18.9431 127.143L24.6 132.8ZM18.6 162.4V170.4H26.6V162.4H18.6ZM-23 162.4L-30.9903 162.006L-31.4038 170.4H-23V162.4ZM-15 -1.90735e-05V-8.00002H-22.6156L-22.9903 -0.39363L-15 -1.90735e-05ZM101 -1.90735e-05H109V-8.00002H101V-1.90735e-05ZM101 40V48H109V40H101ZM24.6 40V32H17.0195L16.6116 39.5695L24.6 40ZM21 106.8L13.0116 106.369L27.8362 110.955L21 106.8ZM95.8 102.8L89.3438 107.524L89.3809 107.575L89.4187 107.625L95.8 102.8ZM91.4 265.2L85.4921 259.806L85.4864 259.812L91.4 265.2ZM-6.6 265.2L-12.5721 270.523L-12.511 270.591L-12.4484 270.659L-6.6 265.2ZM-23 189.6V181.6H-31V189.6H-23ZM10.6 189.6V215.6H26.6V189.6H10.6ZM10.6 215.6C10.6 226.318 12.6252 236.139 18.9432 242.457L30.2569 231.143C28.5748 229.461 26.6 225.148 26.6 215.6H10.6ZM19.1285 242.636C25.1467 248.278 32.8353 250.8 41.4 250.8V234.8C36.098 234.8 32.5866 233.322 30.0715 230.964L19.1285 242.636ZM41.4 250.8C49.9461 250.8 57.6314 248.282 63.4569 242.457L52.1432 231.143C49.9686 233.318 46.7206 234.8 41.4 234.8V250.8ZM63.2715 242.636C69.9992 236.329 72.2 226.424 72.2 215.6H56.2C56.2 225.042 54.1342 229.271 52.3285 230.964L63.2715 242.636ZM72.2 215.6V154H56.2V215.6H72.2ZM72.2 154C72.2 143.176 69.9992 133.271 63.2715 126.964L52.3285 138.636C54.1342 140.329 56.2 144.558 56.2 154H72.2ZM63.6363 127.328C57.8442 121.15 50.0993 118.4 41.4 118.4V134.4C46.5674 134.4 49.7559 135.916 51.9637 138.272L63.6363 127.328ZM41.4 118.4C32.688 118.4 24.9364 121.15 18.9432 127.143L30.2569 138.457C32.7969 135.917 36.2454 134.4 41.4 134.4V118.4ZM18.9431 127.143C12.6252 133.461 10.6 143.282 10.6 154H26.6C26.6 144.452 28.5748 140.139 30.2569 138.457L18.9431 127.143ZM10.6 154V162.4H26.6V154H10.6ZM18.6 154.4H-23V170.4H18.6V154.4ZM-15.0097 162.794L-7.00969 0.393592L-22.9903 -0.39363L-30.9903 162.006L-15.0097 162.794ZM-15 7.99998H101V-8.00002H-15V7.99998ZM93 -1.90735e-05V40H109V-1.90735e-05H93ZM101 32H24.6V48H101V32ZM16.6116 39.5695L13.0116 106.369L28.9884 107.231L32.5884 40.4305L16.6116 39.5695ZM27.8362 110.955C34.5026 99.988 44.5607 94.4 59.4 94.4V78.4C39.5727 78.4 24.0308 86.412 14.1638 102.645L27.8362 110.955ZM59.4 94.4C73.6935 94.4 83.162 99.0756 89.3438 107.524L102.256 98.0759C92.438 84.6577 77.6399 78.4 59.4 78.4V94.4ZM89.4187 107.625C96.2161 116.615 100.2 130.488 100.2 150.4H116.2C116.2 128.712 111.917 110.852 102.181 97.9751L89.4187 107.625ZM100.2 150.4V212.8H116.2V150.4H100.2ZM100.2 212.8C100.2 234.206 94.9212 249.479 85.4921 259.806L97.3079 270.594C110.279 256.388 116.2 236.727 116.2 212.8H100.2ZM85.4864 259.812C76.5253 269.647 62.7299 275.2 42.6 275.2V291.2C65.6701 291.2 84.408 284.753 97.3136 270.588L85.4864 259.812ZM42.6 275.2C22.4824 275.2 8.49788 269.652 -0.751556 259.741L-12.4484 270.659C0.702128 284.748 19.5176 291.2 42.6 291.2V275.2ZM-0.627892 259.877C-9.83123 249.551 -15 234.251 -15 212.8H-31C-31 236.682 -25.2354 256.315 -12.5721 270.523L-0.627892 259.877ZM-15 212.8V189.6H-31V212.8H-15ZM-23 197.6H18.6V181.6H-23V197.6Z" fill="url(#paint0_linear_2040_23)" mask="url(#path-1-outside-1_2040_23)"/>
</g>
<defs>
<linearGradient id="paint0_linear_2040_23" x1="-33.1191" y1="-474.14" x2="123.038" y2="-473.82" gradientUnits="userSpaceOnUse">
<stop stop-color="#F39200"/>
<stop offset="1" stop-color="#E05F02"/>
</linearGradient>
</defs>
</svg>
