<svg width="110" height="260" viewBox="0 0 110 260" fill="none" xmlns="http://www.w3.org/2000/svg">
<path opacity="0.1" d="M-23.8 73.6C-23.8 49.8667 -18.3333 31.8667 -7.4 19.6C3.53333 7.06666 20.4667 0.799998 43.4 0.799998C65 0.799998 81.2667 6.93332 92.2 19.2C103.4 31.2 109 48.5333 109 71.2V78.4H67.4V68.4C67.4 58.2667 65.2667 51.2 61 47.2C57 42.9333 51.5333 40.8 44.6 40.8C36.8667 40.8 30.8667 43.2 26.6 48C22.3333 52.8 20.2 61.8667 20.2 75.2V126.4C27.9333 109.867 41.5333 101.6 61 101.6C77.2667 101.6 89.4 107.067 97.4 118C105.667 128.933 109.8 144.8 109.8 165.6V216.8C109.8 239.467 104.067 256.933 92.6 269.2C81.1333 281.2 64.6 287.2 43 287.2C21.4 287.2 4.86667 281.2 -6.6 269.2C-18.0667 256.933 -23.8 239.467 -23.8 216.8V73.6ZM43 141.6C36.0667 141.6 30.4667 143.733 26.2 148C22.2 152 20.2 159.067 20.2 169.2V219.6C20.2 229.733 22.2 236.8 26.2 240.8C30.4667 244.8 36.0667 246.8 43 246.8C49.9333 246.8 55.4 244.8 59.4 240.8C63.6667 236.8 65.8 229.733 65.8 219.6V169.2C65.8 159.067 63.6667 152 59.4 148C55.4 143.733 49.9333 141.6 43 141.6Z" fill="white"/>
</svg>
