<?xml version="1.0" encoding="UTF-8"?>
<!DOCTYPE svg PUBLIC "-//W3C//DTD SVG 1.1//EN" "http://www.w3.org/Graphics/SVG/1.1/DTD/svg11.dtd">
<svg xmlns="http://www.w3.org/2000/svg" version="1.1" width="512px" height="512px" style="shape-rendering:geometricPrecision; text-rendering:geometricPrecision; image-rendering:optimizeQuality; fill-rule:evenodd; clip-rule:evenodd" xmlns:xlink="http://www.w3.org/1999/xlink">
<g><path style="opacity:0.97" fill="#FF3F3A" d="M 312.5,63.5 C 329.213,61.0059 338.879,68.0059 341.5,84.5C 340.962,89.3201 339.795,93.9867 338,98.5C 296,210.5 254,322.5 212,434.5C 203.907,448.106 192.74,451.272 178.5,444C 169.535,436.094 167.368,426.594 172,415.5C 215,301.167 258,186.833 301,72.5C 304.161,68.4905 307.994,65.4905 312.5,63.5 Z"/></g>
<g><path style="opacity:0.957" fill="#FF3F3A" d="M 142.5,148.5 C 164.826,147.325 173.66,157.658 169,179.5C 167.667,181.5 166.333,183.5 165,185.5C 141.653,208.68 118.486,232.014 95.5,255.5C 119.515,279.681 143.348,304.014 167,328.5C 174.268,344.036 170.101,355.203 154.5,362C 146.698,363.62 139.698,361.953 133.5,357C 105,328.5 76.5,300 48,271.5C 39.7834,261.429 39.4501,251.096 47,240.5C 75.8333,211.667 104.667,182.833 133.5,154C 136.263,151.626 139.263,149.792 142.5,148.5 Z"/></g>
<g><path style="opacity:0.958" fill="#FF3F3A" d="M 355.5,148.5 C 363.718,147.182 371.051,149.015 377.5,154C 406.333,182.833 435.167,211.667 464,240.5C 471.55,251.096 471.217,261.429 463,271.5C 434.5,300 406,328.5 377.5,357C 369.138,363.081 360.138,364.081 350.5,360C 340.641,352.746 337.808,343.246 342,331.5C 343.333,329.5 344.667,327.5 346,325.5C 369.347,302.32 392.514,278.986 415.5,255.5C 391.152,230.986 366.985,206.319 343,181.5C 336.882,166.329 341.049,155.329 355.5,148.5 Z"/></g>
</svg>
